<svg width="5207" height="15" viewBox="0 0 5207 15" fill="none" xmlns="http://www.w3.org/2000/svg">
<path d="M14.0114 7.30549C14.0114 5.58007 13.3259 3.92533 12.1059 2.70528C10.8858 1.48522 9.2311 0.799805 7.50568 0.799805C5.78027 0.799805 4.12552 1.48522 2.90547 2.70527C1.68542 3.92533 1 5.58007 1 7.30549" stroke="#800000"/>
<path d="M27.0231 7.30584C27.0231 9.03126 26.3377 10.686 25.1176 11.9061C23.8976 13.1261 22.2428 13.8115 20.5174 13.8115C18.792 13.8115 17.1372 13.1261 15.9172 11.9061C14.6971 10.686 14.0117 9.03126 14.0117 7.30584" stroke="#800000"/>
<path d="M40.0343 7.30549C40.0343 5.58007 39.3489 3.92533 38.1288 2.70528C36.9088 1.48522 35.254 0.799805 33.5286 0.799805C31.8032 0.799805 30.1485 1.48522 28.9284 2.70527C27.7084 3.92533 27.0229 5.58007 27.0229 7.30549" stroke="#800000"/>
<path d="M53.0455 7.30584C53.0455 9.03126 52.3601 10.686 51.1401 11.9061C49.92 13.1261 48.2653 13.8115 46.5399 13.8115C44.8144 13.8115 43.1597 13.1261 41.9397 11.9061C40.7196 10.686 40.0342 9.03126 40.0342 7.30584" stroke="#800000"/>
<path d="M66.0568 7.30549C66.0568 5.58007 65.3714 3.92533 64.1513 2.70528C62.9313 1.48522 61.2765 0.799805 59.5511 0.799805C57.8257 0.799805 56.1709 1.48522 54.9509 2.70527C53.7308 3.92533 53.0454 5.58007 53.0454 7.30549" stroke="#800000"/>
<path d="M79.068 7.30584C79.068 9.03126 78.3826 10.686 77.1625 11.9061C75.9425 13.1261 74.2877 13.8115 72.5623 13.8115C70.8369 13.8115 69.1822 13.1261 67.9621 11.9061C66.7421 10.686 66.0566 9.03126 66.0566 7.30584" stroke="#800000"/>
<path d="M92.0797 7.30549C92.0797 5.58007 91.3943 3.92533 90.1743 2.70528C88.9542 1.48522 87.2995 0.799805 85.574 0.799805C83.8486 0.799805 82.1939 1.48522 80.9738 2.70527C79.7538 3.92533 79.0684 5.58007 79.0684 7.30549" stroke="#800000"/>
<path d="M105.091 7.30584C105.091 9.03126 104.406 10.686 103.186 11.9061C101.966 13.1261 100.311 13.8115 98.5858 13.8115C96.8603 13.8115 95.2056 13.1261 93.9855 11.9061C92.7655 10.686 92.0801 9.03126 92.0801 7.30584" stroke="#800000"/>
<path d="M118.102 7.30549C118.102 5.58007 117.417 3.92533 116.197 2.70528C114.977 1.48522 113.322 0.799805 111.597 0.799805C109.871 0.799805 108.216 1.48522 106.996 2.70527C105.776 3.92533 105.091 5.58007 105.091 7.30549" stroke="#800000"/>
<path d="M131.114 7.30584C131.114 9.03126 130.428 10.686 129.208 11.9061C127.988 13.1261 126.334 13.8115 124.608 13.8115C122.883 13.8115 121.228 13.1261 120.008 11.9061C118.788 10.686 118.103 9.03126 118.103 7.30584" stroke="#800000"/>
<path d="M144.125 7.30549C144.125 5.58007 143.44 3.92533 142.22 2.70528C141 1.48522 139.345 0.799805 137.619 0.799805C135.894 0.799805 134.239 1.48522 133.019 2.70527C131.799 3.92533 131.114 5.58007 131.114 7.30549" stroke="#800000"/>
<path d="M157.136 7.30584C157.136 9.03126 156.451 10.686 155.231 11.9061C154.011 13.1261 152.356 13.8115 150.631 13.8115C148.905 13.8115 147.251 13.1261 146.03 11.9061C144.81 10.686 144.125 9.03126 144.125 7.30584" stroke="#800000"/>
<path d="M170.148 7.30549C170.148 5.58007 169.462 3.92533 168.242 2.70528C167.022 1.48522 165.367 0.799805 163.642 0.799805C161.916 0.799805 160.262 1.48522 159.042 2.70527C157.822 3.92533 157.136 5.58007 157.136 7.30549" stroke="#800000"/>
<path d="M183.159 7.30584C183.159 9.03126 182.473 10.686 181.253 11.9061C180.033 13.1261 178.379 13.8115 176.653 13.8115C174.928 13.8115 173.273 13.1261 172.053 11.9061C170.833 10.686 170.147 9.03126 170.147 7.30584" stroke="#800000"/>
<path d="M196.171 7.30549C196.171 5.58007 195.485 3.92533 194.265 2.70528C193.045 1.48522 191.39 0.799805 189.665 0.799805C187.939 0.799805 186.285 1.48522 185.065 2.70527C183.845 3.92533 183.159 5.58007 183.159 7.30549" stroke="#800000"/>
<path d="M209.182 7.30584C209.182 9.03126 208.497 10.686 207.277 11.9061C206.057 13.1261 204.402 13.8115 202.677 13.8115C200.951 13.8115 199.296 13.1261 198.076 11.9061C196.856 10.686 196.171 9.03126 196.171 7.30584" stroke="#800000"/>
<path d="M222.193 7.30549C222.193 5.58007 221.508 3.92533 220.288 2.70528C219.067 1.48522 217.413 0.799805 215.687 0.799805C213.962 0.799805 212.307 1.48522 211.087 2.70527C209.867 3.92533 209.182 5.58007 209.182 7.30549" stroke="#800000"/>
<path d="M235.205 7.30584C235.205 9.03126 234.519 10.686 233.299 11.9061C232.079 13.1261 230.424 13.8115 228.699 13.8115C226.974 13.8115 225.319 13.1261 224.099 11.9061C222.879 10.686 222.193 9.03126 222.193 7.30584" stroke="#800000"/>
<path d="M248.216 7.30549C248.216 5.58007 247.531 3.92533 246.31 2.70528C245.09 1.48522 243.436 0.799805 241.71 0.799805C239.985 0.799805 238.33 1.48522 237.11 2.70527C235.89 3.92533 235.205 5.58007 235.205 7.30549" stroke="#800000"/>
<path d="M261.227 7.30584C261.227 9.03126 260.542 10.686 259.322 11.9061C258.102 13.1261 256.447 13.8115 254.722 13.8115C252.996 13.8115 251.341 13.1261 250.121 11.9061C248.901 10.686 248.216 9.03126 248.216 7.30584" stroke="#800000"/>
<path d="M274.239 7.30549C274.239 5.58007 273.553 3.92533 272.333 2.70528C271.113 1.48522 269.459 0.799805 267.733 0.799805C266.008 0.799805 264.353 1.48522 263.133 2.70527C261.913 3.92533 261.228 5.58007 261.228 7.30549" stroke="#800000"/>
<path d="M287.251 7.30584C287.251 9.03126 286.565 10.686 285.345 11.9061C284.125 13.1261 282.47 13.8115 280.745 13.8115C279.02 13.8115 277.365 13.1261 276.145 11.9061C274.925 10.686 274.239 9.03126 274.239 7.30584" stroke="#800000"/>
<path d="M300.261 7.30549C300.261 5.58007 299.576 3.92533 298.356 2.70528C297.136 1.48522 295.481 0.799805 293.756 0.799805C292.03 0.799805 290.376 1.48522 289.155 2.70527C287.935 3.92533 287.25 5.58007 287.25 7.30549" stroke="#800000"/>
<path d="M313.273 7.30584C313.273 9.03126 312.588 10.686 311.368 11.9061C310.148 13.1261 308.493 13.8115 306.767 13.8115C305.042 13.8115 303.387 13.1261 302.167 11.9061C300.947 10.686 300.262 9.03126 300.262 7.30584" stroke="#800000"/>
<path d="M326.284 7.30549C326.284 5.58007 325.599 3.92533 324.379 2.70528C323.159 1.48522 321.504 0.799805 319.779 0.799805C318.053 0.799805 316.398 1.48522 315.178 2.70527C313.958 3.92533 313.273 5.58007 313.273 7.30549" stroke="#800000"/>
<path d="M339.296 7.30584C339.296 9.03126 338.61 10.686 337.39 11.9061C336.17 13.1261 334.515 13.8115 332.79 13.8115C331.064 13.8115 329.41 13.1261 328.19 11.9061C326.97 10.686 326.284 9.03126 326.284 7.30584" stroke="#800000"/>
<path d="M352.307 7.30549C352.307 5.58007 351.621 3.92533 350.401 2.70528C349.181 1.48522 347.527 0.799805 345.801 0.799805C344.076 0.799805 342.421 1.48522 341.201 2.70527C339.981 3.92533 339.295 5.58007 339.295 7.30549" stroke="#800000"/>
<path d="M365.318 7.30584C365.318 9.03126 364.633 10.686 363.413 11.9061C362.192 13.1261 360.538 13.8115 358.812 13.8115C357.087 13.8115 355.432 13.1261 354.212 11.9061C352.992 10.686 352.307 9.03126 352.307 7.30584" stroke="#800000"/>
<path d="M378.33 7.30549C378.33 5.58007 377.644 3.92533 376.424 2.70528C375.204 1.48522 373.549 0.799805 371.824 0.799805C370.099 0.799805 368.444 1.48522 367.224 2.70527C366.004 3.92533 365.318 5.58007 365.318 7.30549" stroke="#800000"/>
<path d="M391.341 7.30584C391.341 9.03126 390.656 10.686 389.435 11.9061C388.215 13.1261 386.561 13.8115 384.835 13.8115C383.11 13.8115 381.455 13.1261 380.235 11.9061C379.015 10.686 378.33 9.03126 378.33 7.30584" stroke="#800000"/>
<path d="M404.352 7.30549C404.352 5.58007 403.667 3.92533 402.447 2.70528C401.227 1.48522 399.572 0.799805 397.847 0.799805C396.121 0.799805 394.466 1.48522 393.246 2.70527C392.026 3.92533 391.341 5.58007 391.341 7.30549" stroke="#800000"/>
<path d="M417.363 7.30584C417.363 9.03126 416.678 10.686 415.458 11.9061C414.238 13.1261 412.583 13.8115 410.858 13.8115C409.132 13.8115 407.478 13.1261 406.258 11.9061C405.037 10.686 404.352 9.03126 404.352 7.30584" stroke="#800000"/>
<path d="M430.375 7.30549C430.375 5.58007 429.69 3.92533 428.47 2.70528C427.25 1.48522 425.595 0.799805 423.869 0.799805C422.144 0.799805 420.489 1.48522 419.269 2.70527C418.049 3.92533 417.364 5.58007 417.364 7.30549" stroke="#800000"/>
<path d="M443.386 7.30584C443.386 9.03126 442.701 10.686 441.481 11.9061C440.261 13.1261 438.606 13.8115 436.881 13.8115C435.155 13.8115 433.501 13.1261 432.28 11.9061C431.06 10.686 430.375 9.03126 430.375 7.30584" stroke="#800000"/>
<path d="M456.398 7.30549C456.398 5.58007 455.713 3.92533 454.493 2.70528C453.273 1.48522 451.618 0.799805 449.892 0.799805C448.167 0.799805 446.512 1.48522 445.292 2.70527C444.072 3.92533 443.387 5.58007 443.387 7.30549" stroke="#800000"/>
<path d="M469.41 7.30584C469.41 9.03126 468.724 10.686 467.504 11.9061C466.284 13.1261 464.63 13.8115 462.904 13.8115C461.179 13.8115 459.524 13.1261 458.304 11.9061C457.084 10.686 456.398 9.03126 456.398 7.30584" stroke="#800000"/>
<path d="M482.421 7.30549C482.421 5.58007 481.735 3.92533 480.515 2.70528C479.295 1.48522 477.64 0.799805 475.915 0.799805C474.189 0.799805 472.535 1.48522 471.315 2.70527C470.095 3.92533 469.409 5.58007 469.409 7.30549" stroke="#800000"/>
<path d="M495.432 7.30584C495.432 9.03126 494.747 10.686 493.527 11.9061C492.307 13.1261 490.652 13.8115 488.927 13.8115C487.201 13.8115 485.546 13.1261 484.326 11.9061C483.106 10.686 482.421 9.03126 482.421 7.30584" stroke="#800000"/>
<path d="M508.443 7.30549C508.443 5.58007 507.758 3.92533 506.538 2.70528C505.318 1.48522 503.663 0.799805 501.938 0.799805C500.212 0.799805 498.558 1.48522 497.338 2.70527C496.118 3.92533 495.432 5.58007 495.432 7.30549" stroke="#800000"/>
<path d="M521.455 7.30584C521.455 9.03126 520.769 10.686 519.549 11.9061C518.329 13.1261 516.674 13.8115 514.949 13.8115C513.224 13.8115 511.569 13.1261 510.349 11.9061C509.129 10.686 508.443 9.03126 508.443 7.30584" stroke="#800000"/>
<path d="M534.466 7.30549C534.466 5.58007 533.781 3.92533 532.56 2.70528C531.34 1.48522 529.686 0.799805 527.96 0.799805C526.235 0.799805 524.58 1.48522 523.36 2.70527C522.14 3.92533 521.455 5.58007 521.455 7.30549" stroke="#800000"/>
<path d="M547.477 7.30584C547.477 9.03126 546.792 10.686 545.572 11.9061C544.352 13.1261 542.697 13.8115 540.972 13.8115C539.246 13.8115 537.591 13.1261 536.371 11.9061C535.151 10.686 534.466 9.03126 534.466 7.30584" stroke="#800000"/>
<path d="M560.489 7.30549C560.489 5.58007 559.803 3.92533 558.583 2.70528C557.363 1.48522 555.709 0.799805 553.983 0.799805C552.258 0.799805 550.603 1.48522 549.383 2.70527C548.163 3.92533 547.478 5.58007 547.478 7.30549" stroke="#800000"/>
<path d="M573.501 7.30584C573.501 9.03126 572.815 10.686 571.595 11.9061C570.375 13.1261 568.72 13.8115 566.995 13.8115C565.27 13.8115 563.615 13.1261 562.395 11.9061C561.175 10.686 560.489 9.03126 560.489 7.30584" stroke="#800000"/>
<path d="M586.511 7.30549C586.511 5.58007 585.826 3.92533 584.606 2.70528C583.386 1.48522 581.731 0.799805 580.006 0.799805C578.28 0.799805 576.626 1.48522 575.405 2.70527C574.185 3.92533 573.5 5.58007 573.5 7.30549" stroke="#800000"/>
<path d="M599.523 7.30584C599.523 9.03126 598.838 10.686 597.618 11.9061C596.398 13.1261 594.743 13.8115 593.017 13.8115C591.292 13.8115 589.637 13.1261 588.417 11.9061C587.197 10.686 586.512 9.03126 586.512 7.30584" stroke="#800000"/>
<path d="M612.534 7.30549C612.534 5.58007 611.849 3.92533 610.629 2.70528C609.409 1.48522 607.754 0.799805 606.029 0.799805C604.303 0.799805 602.648 1.48522 601.428 2.70527C600.208 3.92533 599.523 5.58007 599.523 7.30549" stroke="#800000"/>
<path d="M625.546 7.30584C625.546 9.03126 624.86 10.686 623.64 11.9061C622.42 13.1261 620.765 13.8115 619.04 13.8115C617.314 13.8115 615.66 13.1261 614.44 11.9061C613.22 10.686 612.534 9.03126 612.534 7.30584" stroke="#800000"/>
<path d="M638.557 7.30549C638.557 5.58007 637.871 3.92533 636.651 2.70528C635.431 1.48522 633.777 0.799805 632.051 0.799805C630.326 0.799805 628.671 1.48522 627.451 2.70527C626.231 3.92533 625.545 5.58007 625.545 7.30549" stroke="#800000"/>
<path d="M651.568 7.30584C651.568 9.03126 650.883 10.686 649.663 11.9061C648.442 13.1261 646.788 13.8115 645.062 13.8115C643.337 13.8115 641.682 13.1261 640.462 11.9061C639.242 10.686 638.557 9.03126 638.557 7.30584" stroke="#800000"/>
<path d="M664.58 7.30549C664.58 5.58007 663.894 3.92533 662.674 2.70528C661.454 1.48522 659.799 0.799805 658.074 0.799805C656.349 0.799805 654.694 1.48522 653.474 2.70527C652.254 3.92533 651.568 5.58007 651.568 7.30549" stroke="#800000"/>
<path d="M677.591 7.30584C677.591 9.03126 676.906 10.686 675.685 11.9061C674.465 13.1261 672.811 13.8115 671.085 13.8115C669.36 13.8115 667.705 13.1261 666.485 11.9061C665.265 10.686 664.58 9.03126 664.58 7.30584" stroke="#800000"/>
<path d="M690.602 7.30549C690.602 5.58007 689.917 3.92533 688.697 2.70528C687.477 1.48522 685.822 0.799805 684.097 0.799805C682.371 0.799805 680.716 1.48522 679.496 2.70527C678.276 3.92533 677.591 5.58007 677.591 7.30549" stroke="#800000"/>
<path d="M703.613 7.30584C703.613 9.03126 702.928 10.686 701.708 11.9061C700.488 13.1261 698.833 13.8115 697.108 13.8115C695.382 13.8115 693.728 13.1261 692.508 11.9061C691.287 10.686 690.602 9.03126 690.602 7.30584" stroke="#800000"/>
<path d="M716.625 7.30549C716.625 5.58007 715.94 3.92533 714.72 2.70528C713.5 1.48522 711.845 0.799805 710.119 0.799805C708.394 0.799805 706.739 1.48522 705.519 2.70527C704.299 3.92533 703.614 5.58007 703.614 7.30549" stroke="#800000"/>
<path d="M729.636 7.30584C729.636 9.03126 728.951 10.686 727.731 11.9061C726.511 13.1261 724.856 13.8115 723.131 13.8115C721.405 13.8115 719.751 13.1261 718.53 11.9061C717.31 10.686 716.625 9.03126 716.625 7.30584" stroke="#800000"/>
<path d="M742.648 7.30549C742.648 5.58007 741.962 3.92533 740.742 2.70528C739.522 1.48522 737.867 0.799805 736.142 0.799805C734.416 0.799805 732.762 1.48522 731.542 2.70527C730.322 3.92533 729.636 5.58007 729.636 7.30549" stroke="#800000"/>
<path d="M755.659 7.30584C755.659 9.03126 754.973 10.686 753.753 11.9061C752.533 13.1261 750.879 13.8115 749.153 13.8115C747.428 13.8115 745.773 13.1261 744.553 11.9061C743.333 10.686 742.647 9.03126 742.647 7.30584" stroke="#800000"/>
<path d="M768.671 7.30549C768.671 5.58007 767.985 3.92533 766.765 2.70528C765.545 1.48522 763.89 0.799805 762.165 0.799805C760.439 0.799805 758.785 1.48522 757.565 2.70527C756.345 3.92533 755.659 5.58007 755.659 7.30549" stroke="#800000"/>
<path d="M781.682 7.30584C781.682 9.03126 780.997 10.686 779.777 11.9061C778.557 13.1261 776.902 13.8115 775.177 13.8115C773.451 13.8115 771.796 13.1261 770.576 11.9061C769.356 10.686 768.671 9.03126 768.671 7.30584" stroke="#800000"/>
<path d="M794.693 7.30549C794.693 5.58007 794.008 3.92533 792.788 2.70528C791.567 1.48522 789.913 0.799805 788.187 0.799805C786.462 0.799805 784.807 1.48522 783.587 2.70527C782.367 3.92533 781.682 5.58007 781.682 7.30549" stroke="#800000"/>
<path d="M807.705 7.30584C807.705 9.03126 807.019 10.686 805.799 11.9061C804.579 13.1261 802.924 13.8115 801.199 13.8115C799.474 13.8115 797.819 13.1261 796.599 11.9061C795.379 10.686 794.693 9.03126 794.693 7.30584" stroke="#800000"/>
<path d="M820.716 7.30549C820.716 5.58007 820.031 3.92533 818.81 2.70528C817.59 1.48522 815.936 0.799805 814.21 0.799805C812.485 0.799805 810.83 1.48522 809.61 2.70527C808.39 3.92533 807.705 5.58007 807.705 7.30549" stroke="#800000"/>
<path d="M833.727 7.30584C833.727 9.03126 833.042 10.686 831.822 11.9061C830.602 13.1261 828.947 13.8115 827.222 13.8115C825.496 13.8115 823.841 13.1261 822.621 11.9061C821.401 10.686 820.716 9.03126 820.716 7.30584" stroke="#800000"/>
<path d="M846.738 7.30549C846.738 5.58007 846.053 3.92533 844.833 2.70528C843.613 1.48522 841.958 0.799805 840.233 0.799805C838.507 0.799805 836.853 1.48522 835.633 2.70527C834.412 3.92533 833.727 5.58007 833.727 7.30549" stroke="#800000"/>
<path d="M859.75 7.30584C859.75 9.03126 859.064 10.686 857.844 11.9061C856.624 13.1261 854.969 13.8115 853.244 13.8115C851.519 13.8115 849.864 13.1261 848.644 11.9061C847.424 10.686 846.738 9.03126 846.738 7.30584" stroke="#800000"/>
<path d="M872.761 7.30549C872.761 5.58007 872.076 3.92533 870.856 2.70528C869.636 1.48522 867.981 0.799805 866.256 0.799805C864.53 0.799805 862.876 1.48522 861.655 2.70527C860.435 3.92533 859.75 5.58007 859.75 7.30549" stroke="#800000"/>
<path d="M885.773 7.30584C885.773 9.03126 885.088 10.686 883.868 11.9061C882.648 13.1261 880.993 13.8115 879.267 13.8115C877.542 13.8115 875.887 13.1261 874.667 11.9061C873.447 10.686 872.762 9.03126 872.762 7.30584" stroke="#800000"/>
<path d="M898.784 7.30549C898.784 5.58007 898.098 3.92533 896.878 2.70528C895.658 1.48522 894.004 0.799805 892.278 0.799805C890.553 0.799805 888.898 1.48522 887.678 2.70527C886.458 3.92533 885.772 5.58007 885.772 7.30549" stroke="#800000"/>
<path d="M911.795 7.30584C911.795 9.03126 911.11 10.686 909.89 11.9061C908.67 13.1261 907.015 13.8115 905.289 13.8115C903.564 13.8115 901.909 13.1261 900.689 11.9061C899.469 10.686 898.784 9.03126 898.784 7.30584" stroke="#800000"/>
<path d="M924.807 7.30549C924.807 5.58007 924.121 3.92533 922.901 2.70528C921.681 1.48522 920.027 0.799805 918.301 0.799805C916.576 0.799805 914.921 1.48522 913.701 2.70527C912.481 3.92533 911.795 5.58007 911.795 7.30549" stroke="#800000"/>
<path d="M937.818 7.30584C937.818 9.03126 937.133 10.686 935.913 11.9061C934.692 13.1261 933.038 13.8115 931.312 13.8115C929.587 13.8115 927.932 13.1261 926.712 11.9061C925.492 10.686 924.807 9.03126 924.807 7.30584" stroke="#800000"/>
<path d="M950.829 7.30549C950.829 5.58007 950.144 3.92533 948.924 2.70528C947.704 1.48522 946.049 0.799805 944.324 0.799805C942.598 0.799805 940.943 1.48522 939.723 2.70527C938.503 3.92533 937.818 5.58007 937.818 7.30549" stroke="#800000"/>
<path d="M963.84 7.30584C963.84 9.03126 963.155 10.686 961.935 11.9061C960.715 13.1261 959.06 13.8115 957.335 13.8115C955.609 13.8115 953.955 13.1261 952.735 11.9061C951.515 10.686 950.829 9.03126 950.829 7.30584" stroke="#800000"/>
<path d="M976.852 7.30549C976.852 5.58007 976.167 3.92533 974.947 2.70528C973.727 1.48522 972.072 0.799805 970.347 0.799805C968.621 0.799805 966.966 1.48522 965.746 2.70527C964.526 3.92533 963.841 5.58007 963.841 7.30549" stroke="#800000"/>
<path d="M989.863 7.30584C989.863 9.03126 989.178 10.686 987.958 11.9061C986.738 13.1261 985.083 13.8115 983.358 13.8115C981.632 13.8115 979.978 13.1261 978.758 11.9061C977.537 10.686 976.852 9.03126 976.852 7.30584" stroke="#800000"/>
<path d="M1002.87 7.30549C1002.87 5.58007 1002.19 3.92533 1000.97 2.70528C999.749 1.48522 998.094 0.799805 996.369 0.799805C994.644 0.799805 992.989 1.48522 991.769 2.70527C990.549 3.92533 989.863 5.58007 989.863 7.30549" stroke="#800000"/>
<path d="M1015.89 7.30584C1015.89 9.03126 1015.2 10.686 1013.98 11.9061C1012.76 13.1261 1011.11 13.8115 1009.38 13.8115C1007.65 13.8115 1006 13.1261 1004.78 11.9061C1003.56 10.686 1002.87 9.03126 1002.87 7.30584" stroke="#800000"/>
<path d="M1028.9 7.30549C1028.9 5.58007 1028.21 3.92533 1026.99 2.70528C1025.77 1.48522 1024.12 0.799805 1022.39 0.799805C1020.67 0.799805 1019.01 1.48522 1017.79 2.70527C1016.57 3.92533 1015.89 5.58007 1015.89 7.30549" stroke="#800000"/>
<path d="M1041.91 7.30584C1041.91 9.03126 1041.22 10.686 1040 11.9061C1038.78 13.1261 1037.13 13.8115 1035.4 13.8115C1033.68 13.8115 1032.02 13.1261 1030.8 11.9061C1029.58 10.686 1028.9 9.03126 1028.9 7.30584" stroke="#800000"/>
<path d="M1054.92 7.30549C1054.92 5.58007 1054.23 3.92533 1053.01 2.70528C1051.79 1.48522 1050.14 0.799805 1048.41 0.799805C1046.69 0.799805 1045.03 1.48522 1043.81 2.70527C1042.59 3.92533 1041.91 5.58007 1041.91 7.30549" stroke="#800000"/>
<path d="M1067.93 7.30584C1067.93 9.03126 1067.25 10.686 1066.03 11.9061C1064.81 13.1261 1063.15 13.8115 1061.43 13.8115C1059.7 13.8115 1058.05 13.1261 1056.83 11.9061C1055.61 10.686 1054.92 9.03126 1054.92 7.30584" stroke="#800000"/>
<path d="M1080.94 7.30549C1080.94 5.58007 1080.26 3.92533 1079.04 2.70528C1077.82 1.48522 1076.16 0.799805 1074.44 0.799805C1072.71 0.799805 1071.06 1.48522 1069.84 2.70527C1068.62 3.92533 1067.93 5.58007 1067.93 7.30549" stroke="#800000"/>
<path d="M1093.95 7.30584C1093.95 9.03126 1093.27 10.686 1092.05 11.9061C1090.83 13.1261 1089.17 13.8115 1087.45 13.8115C1085.72 13.8115 1084.07 13.1261 1082.85 11.9061C1081.63 10.686 1080.94 9.03126 1080.94 7.30584" stroke="#800000"/>
<path d="M1106.97 7.30549C1106.97 5.58007 1106.28 3.92533 1105.06 2.70528C1103.84 1.48522 1102.19 0.799805 1100.46 0.799805C1098.73 0.799805 1097.08 1.48522 1095.86 2.70527C1094.64 3.92533 1093.95 5.58007 1093.95 7.30549" stroke="#800000"/>
<path d="M1119.98 7.30584C1119.98 9.03126 1119.29 10.686 1118.07 11.9061C1116.85 13.1261 1115.2 13.8115 1113.47 13.8115C1111.75 13.8115 1110.09 13.1261 1108.87 11.9061C1107.65 10.686 1106.97 9.03126 1106.97 7.30584" stroke="#800000"/>
<path d="M1132.99 7.30549C1132.99 5.58007 1132.3 3.92533 1131.08 2.70528C1129.86 1.48522 1128.21 0.799805 1126.48 0.799805C1124.76 0.799805 1123.1 1.48522 1121.88 2.70527C1120.66 3.92533 1119.98 5.58007 1119.98 7.30549" stroke="#800000"/>
<path d="M1146 7.30584C1146 9.03126 1145.31 10.686 1144.09 11.9061C1142.87 13.1261 1141.22 13.8115 1139.49 13.8115C1137.77 13.8115 1136.11 13.1261 1134.89 11.9061C1133.67 10.686 1132.99 9.03126 1132.99 7.30584" stroke="#800000"/>
<path d="M1159.01 7.30549C1159.01 5.58007 1158.33 3.92533 1157.11 2.70528C1155.89 1.48522 1154.23 0.799805 1152.51 0.799805C1150.78 0.799805 1149.13 1.48522 1147.9 2.70527C1146.68 3.92533 1146 5.58007 1146 7.30549" stroke="#800000"/>
<path d="M1172.02 7.30584C1172.02 9.03126 1171.34 10.686 1170.12 11.9061C1168.9 13.1261 1167.24 13.8115 1165.52 13.8115C1163.79 13.8115 1162.14 13.1261 1160.92 11.9061C1159.7 10.686 1159.01 9.03126 1159.01 7.30584" stroke="#800000"/>
<path d="M1185.03 7.30549C1185.03 5.58007 1184.35 3.92533 1183.13 2.70528C1181.91 1.48522 1180.25 0.799805 1178.53 0.799805C1176.8 0.799805 1175.15 1.48522 1173.93 2.70527C1172.71 3.92533 1172.02 5.58007 1172.02 7.30549" stroke="#800000"/>
<path d="M1198.05 7.30584C1198.05 9.03126 1197.36 10.686 1196.14 11.9061C1194.92 13.1261 1193.27 13.8115 1191.54 13.8115C1189.81 13.8115 1188.16 13.1261 1186.94 11.9061C1185.72 10.686 1185.03 9.03126 1185.03 7.30584" stroke="#800000"/>
<path d="M1211.06 7.30549C1211.06 5.58007 1210.37 3.92533 1209.15 2.70528C1207.93 1.48522 1206.28 0.799805 1204.55 0.799805C1202.83 0.799805 1201.17 1.48522 1199.95 2.70527C1198.73 3.92533 1198.04 5.58007 1198.04 7.30549" stroke="#800000"/>
<path d="M1224.07 7.30584C1224.07 9.03126 1223.38 10.686 1222.16 11.9061C1220.94 13.1261 1219.29 13.8115 1217.56 13.8115C1215.84 13.8115 1214.18 13.1261 1212.96 11.9061C1211.74 10.686 1211.06 9.03126 1211.06 7.30584" stroke="#800000"/>
<path d="M1237.08 7.30549C1237.08 5.58007 1236.39 3.92533 1235.17 2.70528C1233.95 1.48522 1232.3 0.799805 1230.57 0.799805C1228.85 0.799805 1227.19 1.48522 1225.97 2.70527C1224.75 3.92533 1224.07 5.58007 1224.07 7.30549" stroke="#800000"/>
<path d="M1250.09 7.30584C1250.09 9.03126 1249.41 10.686 1248.18 11.9061C1246.96 13.1261 1245.31 13.8115 1243.58 13.8115C1241.86 13.8115 1240.2 13.1261 1238.98 11.9061C1237.76 10.686 1237.08 9.03126 1237.08 7.30584" stroke="#800000"/>
<path d="M1263.1 7.30549C1263.1 5.58007 1262.42 3.92533 1261.2 2.70528C1259.98 1.48522 1258.32 0.799805 1256.6 0.799805C1254.87 0.799805 1253.22 1.48522 1252 2.70527C1250.78 3.92533 1250.09 5.58007 1250.09 7.30549" stroke="#800000"/>
<path d="M1276.11 7.30584C1276.11 9.03126 1275.43 10.686 1274.21 11.9061C1272.99 13.1261 1271.33 13.8115 1269.61 13.8115C1267.88 13.8115 1266.23 13.1261 1265.01 11.9061C1263.79 10.686 1263.1 9.03126 1263.1 7.30584" stroke="#800000"/>
<path d="M1289.12 7.30549C1289.12 5.58007 1288.44 3.92533 1287.22 2.70528C1286 1.48522 1284.34 0.799805 1282.62 0.799805C1280.89 0.799805 1279.24 1.48522 1278.02 2.70527C1276.8 3.92533 1276.11 5.58007 1276.11 7.30549" stroke="#800000"/>
<path d="M1302.14 7.30584C1302.14 9.03126 1301.45 10.686 1300.23 11.9061C1299.01 13.1261 1297.36 13.8115 1295.63 13.8115C1293.9 13.8115 1292.25 13.1261 1291.03 11.9061C1289.81 10.686 1289.12 9.03126 1289.12 7.30584" stroke="#800000"/>
<path d="M1315.15 7.30549C1315.15 5.58007 1314.46 3.92533 1313.24 2.70528C1312.02 1.48522 1310.37 0.799805 1308.64 0.799805C1306.92 0.799805 1305.26 1.48522 1304.04 2.70527C1302.82 3.92533 1302.14 5.58007 1302.14 7.30549" stroke="#800000"/>
<path d="M1328.16 7.30584C1328.16 9.03126 1327.47 10.686 1326.25 11.9061C1325.03 13.1261 1323.38 13.8115 1321.65 13.8115C1319.93 13.8115 1318.27 13.1261 1317.05 11.9061C1315.83 10.686 1315.15 9.03126 1315.15 7.30584" stroke="#800000"/>
<path d="M1341.17 7.30549C1341.17 5.58007 1340.48 3.92533 1339.26 2.70528C1338.04 1.48522 1336.39 0.799805 1334.66 0.799805C1332.94 0.799805 1331.28 1.48522 1330.06 2.70527C1328.84 3.92533 1328.16 5.58007 1328.16 7.30549" stroke="#800000"/>
<path d="M1354.18 7.30584C1354.18 9.03126 1353.5 10.686 1352.28 11.9061C1351.06 13.1261 1349.4 13.8115 1347.68 13.8115C1345.95 13.8115 1344.3 13.1261 1343.08 11.9061C1341.86 10.686 1341.17 9.03126 1341.17 7.30584" stroke="#800000"/>
<path d="M1367.19 7.30549C1367.19 5.58007 1366.51 3.92533 1365.29 2.70528C1364.07 1.48522 1362.41 0.799805 1360.69 0.799805C1358.96 0.799805 1357.31 1.48522 1356.09 2.70527C1354.87 3.92533 1354.18 5.58007 1354.18 7.30549" stroke="#800000"/>
<path d="M1380.2 7.30584C1380.2 9.03126 1379.52 10.686 1378.3 11.9061C1377.08 13.1261 1375.42 13.8115 1373.7 13.8115C1371.97 13.8115 1370.32 13.1261 1369.1 11.9061C1367.88 10.686 1367.19 9.03126 1367.19 7.30584" stroke="#800000"/>
<path d="M1393.22 7.30549C1393.22 5.58007 1392.53 3.92533 1391.31 2.70528C1390.09 1.48522 1388.44 0.799805 1386.71 0.799805C1384.98 0.799805 1383.33 1.48522 1382.11 2.70527C1380.89 3.92533 1380.2 5.58007 1380.2 7.30549" stroke="#800000"/>
<path d="M1406.23 7.30584C1406.23 9.03126 1405.54 10.686 1404.32 11.9061C1403.1 13.1261 1401.45 13.8115 1399.72 13.8115C1398 13.8115 1396.34 13.1261 1395.12 11.9061C1393.9 10.686 1393.22 9.03126 1393.22 7.30584" stroke="#800000"/>
<path d="M1419.24 7.30549C1419.24 5.58007 1418.55 3.92533 1417.33 2.70528C1416.11 1.48522 1414.46 0.799805 1412.73 0.799805C1411.01 0.799805 1409.35 1.48522 1408.13 2.70527C1406.91 3.92533 1406.23 5.58007 1406.23 7.30549" stroke="#800000"/>
<path d="M1432.25 7.30584C1432.25 9.03126 1431.56 10.686 1430.34 11.9061C1429.12 13.1261 1427.47 13.8115 1425.74 13.8115C1424.02 13.8115 1422.36 13.1261 1421.14 11.9061C1419.92 10.686 1419.24 9.03126 1419.24 7.30584" stroke="#800000"/>
<path d="M1445.26 7.30549C1445.26 5.58007 1444.58 3.92533 1443.36 2.70528C1442.14 1.48522 1440.48 0.799805 1438.76 0.799805C1437.03 0.799805 1435.38 1.48522 1434.15 2.70527C1432.93 3.92533 1432.25 5.58007 1432.25 7.30549" stroke="#800000"/>
<path d="M1458.27 7.30584C1458.27 9.03126 1457.59 10.686 1456.37 11.9061C1455.15 13.1261 1453.49 13.8115 1451.77 13.8115C1450.04 13.8115 1448.39 13.1261 1447.17 11.9061C1445.95 10.686 1445.26 9.03126 1445.26 7.30584" stroke="#800000"/>
<path d="M1471.28 7.30549C1471.28 5.58007 1470.6 3.92533 1469.38 2.70528C1468.16 1.48522 1466.5 0.799805 1464.78 0.799805C1463.05 0.799805 1461.4 1.48522 1460.18 2.70527C1458.96 3.92533 1458.27 5.58007 1458.27 7.30549" stroke="#800000"/>
<path d="M1484.29 7.30584C1484.29 9.03126 1483.61 10.686 1482.39 11.9061C1481.17 13.1261 1479.51 13.8115 1477.79 13.8115C1476.06 13.8115 1474.41 13.1261 1473.19 11.9061C1471.97 10.686 1471.28 9.03126 1471.28 7.30584" stroke="#800000"/>
<path d="M1497.31 7.30549C1497.31 5.58007 1496.62 3.92533 1495.4 2.70528C1494.18 1.48522 1492.53 0.799805 1490.8 0.799805C1489.08 0.799805 1487.42 1.48522 1486.2 2.70527C1484.98 3.92533 1484.29 5.58007 1484.29 7.30549" stroke="#800000"/>
<path d="M1510.32 7.30584C1510.32 9.03126 1509.63 10.686 1508.41 11.9061C1507.19 13.1261 1505.54 13.8115 1503.81 13.8115C1502.09 13.8115 1500.43 13.1261 1499.21 11.9061C1497.99 10.686 1497.31 9.03126 1497.31 7.30584" stroke="#800000"/>
<path d="M1523.33 7.30549C1523.33 5.58007 1522.64 3.92533 1521.42 2.70528C1520.2 1.48522 1518.55 0.799805 1516.82 0.799805C1515.1 0.799805 1513.44 1.48522 1512.22 2.70527C1511 3.92533 1510.32 5.58007 1510.32 7.30549" stroke="#800000"/>
<path d="M1536.34 7.30584C1536.34 9.03126 1535.66 10.686 1534.43 11.9061C1533.21 13.1261 1531.56 13.8115 1529.83 13.8115C1528.11 13.8115 1526.45 13.1261 1525.23 11.9061C1524.01 10.686 1523.33 9.03126 1523.33 7.30584" stroke="#800000"/>
<path d="M1549.35 7.30549C1549.35 5.58007 1548.67 3.92533 1547.45 2.70528C1546.23 1.48522 1544.57 0.799805 1542.85 0.799805C1541.12 0.799805 1539.47 1.48522 1538.25 2.70527C1537.03 3.92533 1536.34 5.58007 1536.34 7.30549" stroke="#800000"/>
<path d="M1562.36 7.30584C1562.36 9.03126 1561.68 10.686 1560.46 11.9061C1559.24 13.1261 1557.58 13.8115 1555.86 13.8115C1554.13 13.8115 1552.48 13.1261 1551.26 11.9061C1550.04 10.686 1549.35 9.03126 1549.35 7.30584" stroke="#800000"/>
<path d="M1575.37 7.30549C1575.37 5.58007 1574.69 3.92533 1573.47 2.70528C1572.25 1.48522 1570.59 0.799805 1568.87 0.799805C1567.14 0.799805 1565.49 1.48522 1564.27 2.70527C1563.05 3.92533 1562.36 5.58007 1562.36 7.30549" stroke="#800000"/>
<path d="M1588.39 7.30584C1588.39 9.03126 1587.7 10.686 1586.48 11.9061C1585.26 13.1261 1583.61 13.8115 1581.88 13.8115C1580.15 13.8115 1578.5 13.1261 1577.28 11.9061C1576.06 10.686 1575.37 9.03126 1575.37 7.30584" stroke="#800000"/>
<path d="M1601.4 7.30549C1601.4 5.58007 1600.71 3.92533 1599.49 2.70528C1598.27 1.48522 1596.62 0.799805 1594.89 0.799805C1593.17 0.799805 1591.51 1.48522 1590.29 2.70527C1589.07 3.92533 1588.39 5.58007 1588.39 7.30549" stroke="#800000"/>
<path d="M1614.41 7.30584C1614.41 9.03126 1613.72 10.686 1612.5 11.9061C1611.28 13.1261 1609.63 13.8115 1607.9 13.8115C1606.18 13.8115 1604.52 13.1261 1603.3 11.9061C1602.08 10.686 1601.4 9.03126 1601.4 7.30584" stroke="#800000"/>
<path d="M1627.42 7.30549C1627.42 5.58007 1626.73 3.92533 1625.51 2.70528C1624.29 1.48522 1622.64 0.799805 1620.91 0.799805C1619.19 0.799805 1617.53 1.48522 1616.31 2.70527C1615.09 3.92533 1614.41 5.58007 1614.41 7.30549" stroke="#800000"/>
<path d="M1640.43 7.30584C1640.43 9.03126 1639.75 10.686 1638.53 11.9061C1637.31 13.1261 1635.65 13.8115 1633.93 13.8115C1632.2 13.8115 1630.54 13.1261 1629.32 11.9061C1628.1 10.686 1627.42 9.03126 1627.42 7.30584" stroke="#800000"/>
<path d="M1653.44 7.30549C1653.44 5.58007 1652.76 3.92533 1651.54 2.70528C1650.32 1.48522 1648.66 0.799805 1646.94 0.799805C1645.21 0.799805 1643.56 1.48522 1642.34 2.70527C1641.12 3.92533 1640.43 5.58007 1640.43 7.30549" stroke="#800000"/>
<path d="M1666.45 7.30584C1666.45 9.03126 1665.77 10.686 1664.55 11.9061C1663.33 13.1261 1661.67 13.8115 1659.95 13.8115C1658.22 13.8115 1656.57 13.1261 1655.35 11.9061C1654.13 10.686 1653.44 9.03126 1653.44 7.30584" stroke="#800000"/>
<path d="M1679.46 7.30549C1679.46 5.58007 1678.78 3.92533 1677.56 2.70528C1676.34 1.48522 1674.68 0.799805 1672.96 0.799805C1671.23 0.799805 1669.58 1.48522 1668.36 2.70527C1667.14 3.92533 1666.45 5.58007 1666.45 7.30549" stroke="#800000"/>
<path d="M1692.48 7.30584C1692.48 9.03126 1691.79 10.686 1690.57 11.9061C1689.35 13.1261 1687.7 13.8115 1685.97 13.8115C1684.25 13.8115 1682.59 13.1261 1681.37 11.9061C1680.15 10.686 1679.46 9.03126 1679.46 7.30584" stroke="#800000"/>
<path d="M1705.49 7.30549C1705.49 5.58007 1704.8 3.92533 1703.58 2.70528C1702.36 1.48522 1700.71 0.799805 1698.98 0.799805C1697.26 0.799805 1695.6 1.48522 1694.38 2.70527C1693.16 3.92533 1692.48 5.58007 1692.48 7.30549" stroke="#800000"/>
<path d="M1718.5 7.30584C1718.5 9.03126 1717.81 10.686 1716.59 11.9061C1715.37 13.1261 1713.72 13.8115 1711.99 13.8115C1710.27 13.8115 1708.61 13.1261 1707.39 11.9061C1706.17 10.686 1705.49 9.03126 1705.49 7.30584" stroke="#800000"/>
<path d="M1731.51 7.30549C1731.51 5.58007 1730.82 3.92533 1729.6 2.70528C1728.38 1.48522 1726.73 0.799805 1725 0.799805C1723.28 0.799805 1721.62 1.48522 1720.4 2.70527C1719.18 3.92533 1718.5 5.58007 1718.5 7.30549" stroke="#800000"/>
<path d="M1744.52 7.30584C1744.52 9.03126 1743.84 10.686 1742.62 11.9061C1741.4 13.1261 1739.74 13.8115 1738.02 13.8115C1736.29 13.8115 1734.64 13.1261 1733.42 11.9061C1732.2 10.686 1731.51 9.03126 1731.51 7.30584" stroke="#800000"/>
<path d="M1757.53 7.30549C1757.53 5.58007 1756.85 3.92533 1755.63 2.70528C1754.41 1.48522 1752.75 0.799805 1751.03 0.799805C1749.3 0.799805 1747.65 1.48522 1746.43 2.70527C1745.21 3.92533 1744.52 5.58007 1744.52 7.30549" stroke="#800000"/>
<path d="M1770.54 7.30584C1770.54 9.03126 1769.86 10.686 1768.64 11.9061C1767.42 13.1261 1765.76 13.8115 1764.04 13.8115C1762.31 13.8115 1760.66 13.1261 1759.44 11.9061C1758.22 10.686 1757.53 9.03126 1757.53 7.30584" stroke="#800000"/>
<path d="M1783.56 7.30549C1783.56 5.58007 1782.87 3.92533 1781.65 2.70528C1780.43 1.48522 1778.78 0.799805 1777.05 0.799805C1775.32 0.799805 1773.67 1.48522 1772.45 2.70527C1771.23 3.92533 1770.54 5.58007 1770.54 7.30549" stroke="#800000"/>
<path d="M1796.57 7.30584C1796.57 9.03126 1795.88 10.686 1794.66 11.9061C1793.44 13.1261 1791.79 13.8115 1790.06 13.8115C1788.34 13.8115 1786.68 13.1261 1785.46 11.9061C1784.24 10.686 1783.56 9.03126 1783.56 7.30584" stroke="#800000"/>
<path d="M1809.58 7.30549C1809.58 5.58007 1808.89 3.92533 1807.67 2.70528C1806.45 1.48522 1804.8 0.799805 1803.07 0.799805C1801.35 0.799805 1799.69 1.48522 1798.47 2.70527C1797.25 3.92533 1796.57 5.58007 1796.57 7.30549" stroke="#800000"/>
<path d="M1822.59 7.30584C1822.59 9.03126 1821.91 10.686 1820.68 11.9061C1819.46 13.1261 1817.81 13.8115 1816.08 13.8115C1814.36 13.8115 1812.7 13.1261 1811.48 11.9061C1810.26 10.686 1809.58 9.03126 1809.58 7.30584" stroke="#800000"/>
<path d="M1835.6 7.30549C1835.6 5.58007 1834.92 3.92533 1833.7 2.70528C1832.48 1.48522 1830.82 0.799805 1829.1 0.799805C1827.37 0.799805 1825.72 1.48522 1824.5 2.70527C1823.28 3.92533 1822.59 5.58007 1822.59 7.30549" stroke="#800000"/>
<path d="M1848.61 7.30584C1848.61 9.03126 1847.93 10.686 1846.71 11.9061C1845.49 13.1261 1843.83 13.8115 1842.11 13.8115C1840.38 13.8115 1838.73 13.1261 1837.51 11.9061C1836.29 10.686 1835.6 9.03126 1835.6 7.30584" stroke="#800000"/>
<path d="M1861.62 7.30549C1861.62 5.58007 1860.94 3.92533 1859.72 2.70528C1858.5 1.48522 1856.84 0.799805 1855.12 0.799805C1853.39 0.799805 1851.74 1.48522 1850.52 2.70527C1849.3 3.92533 1848.61 5.58007 1848.61 7.30549" stroke="#800000"/>
<path d="M1874.64 7.30584C1874.64 9.03126 1873.95 10.686 1872.73 11.9061C1871.51 13.1261 1869.86 13.8115 1868.13 13.8115C1866.4 13.8115 1864.75 13.1261 1863.53 11.9061C1862.31 10.686 1861.62 9.03126 1861.62 7.30584" stroke="#800000"/>
<path d="M1887.65 7.30549C1887.65 5.58007 1886.96 3.92533 1885.74 2.70528C1884.52 1.48522 1882.87 0.799805 1881.14 0.799805C1879.42 0.799805 1877.76 1.48522 1876.54 2.70527C1875.32 3.92533 1874.64 5.58007 1874.64 7.30549" stroke="#800000"/>
<path d="M1900.66 7.30584C1900.66 9.03126 1899.97 10.686 1898.75 11.9061C1897.53 13.1261 1895.88 13.8115 1894.15 13.8115C1892.43 13.8115 1890.77 13.1261 1889.55 11.9061C1888.33 10.686 1887.65 9.03126 1887.65 7.30584" stroke="#800000"/>
<path d="M1913.67 7.30549C1913.67 5.58007 1912.98 3.92533 1911.76 2.70528C1910.54 1.48522 1908.89 0.799805 1907.16 0.799805C1905.44 0.799805 1903.78 1.48522 1902.56 2.70527C1901.34 3.92533 1900.66 5.58007 1900.66 7.30549" stroke="#800000"/>
<path d="M1926.68 7.30584C1926.68 9.03126 1926 10.686 1924.78 11.9061C1923.56 13.1261 1921.9 13.8115 1920.18 13.8115C1918.45 13.8115 1916.8 13.1261 1915.58 11.9061C1914.36 10.686 1913.67 9.03126 1913.67 7.30584" stroke="#800000"/>
<path d="M1939.69 7.30549C1939.69 5.58007 1939.01 3.92533 1937.79 2.70528C1936.57 1.48522 1934.91 0.799805 1933.19 0.799805C1931.46 0.799805 1929.81 1.48522 1928.59 2.70527C1927.37 3.92533 1926.68 5.58007 1926.68 7.30549" stroke="#800000"/>
<path d="M1952.7 7.30584C1952.7 9.03126 1952.02 10.686 1950.8 11.9061C1949.58 13.1261 1947.92 13.8115 1946.2 13.8115C1944.47 13.8115 1942.82 13.1261 1941.6 11.9061C1940.38 10.686 1939.69 9.03126 1939.69 7.30584" stroke="#800000"/>
<path d="M1965.71 7.30549C1965.71 5.58007 1965.03 3.92533 1963.81 2.70528C1962.59 1.48522 1960.93 0.799805 1959.21 0.799805C1957.48 0.799805 1955.83 1.48522 1954.61 2.70527C1953.39 3.92533 1952.7 5.58007 1952.7 7.30549" stroke="#800000"/>
<path d="M1978.73 7.30584C1978.73 9.03126 1978.04 10.686 1976.82 11.9061C1975.6 13.1261 1973.95 13.8115 1972.22 13.8115C1970.5 13.8115 1968.84 13.1261 1967.62 11.9061C1966.4 10.686 1965.71 9.03126 1965.71 7.30584" stroke="#800000"/>
<path d="M1991.74 7.30549C1991.74 5.58007 1991.05 3.92533 1989.83 2.70528C1988.61 1.48522 1986.96 0.799805 1985.23 0.799805C1983.51 0.799805 1981.85 1.48522 1980.63 2.70527C1979.41 3.92533 1978.73 5.58007 1978.73 7.30549" stroke="#800000"/>
<path d="M2004.75 7.30584C2004.75 9.03126 2004.06 10.686 2002.84 11.9061C2001.62 13.1261 1999.97 13.8115 1998.24 13.8115C1996.52 13.8115 1994.86 13.1261 1993.64 11.9061C1992.42 10.686 1991.74 9.03126 1991.74 7.30584" stroke="#800000"/>
<path d="M2017.76 7.30549C2017.76 5.58007 2017.07 3.92533 2015.85 2.70528C2014.63 1.48522 2012.98 0.799805 2011.25 0.799805C2009.53 0.799805 2007.87 1.48522 2006.65 2.70527C2005.43 3.92533 2004.75 5.58007 2004.75 7.30549" stroke="#800000"/>
<path d="M2030.77 7.30584C2030.77 9.03126 2030.09 10.686 2028.87 11.9061C2027.65 13.1261 2025.99 13.8115 2024.27 13.8115C2022.54 13.8115 2020.89 13.1261 2019.67 11.9061C2018.45 10.686 2017.76 9.03126 2017.76 7.30584" stroke="#800000"/>
<path d="M2043.78 7.30549C2043.78 5.58007 2043.1 3.92533 2041.88 2.70528C2040.66 1.48522 2039 0.799805 2037.28 0.799805C2035.55 0.799805 2033.9 1.48522 2032.68 2.70527C2031.46 3.92533 2030.77 5.58007 2030.77 7.30549" stroke="#800000"/>
<path d="M2056.79 7.30584C2056.79 9.03126 2056.11 10.686 2054.89 11.9061C2053.67 13.1261 2052.01 13.8115 2050.29 13.8115C2048.56 13.8115 2046.91 13.1261 2045.69 11.9061C2044.47 10.686 2043.78 9.03126 2043.78 7.30584" stroke="#800000"/>
<path d="M2069.81 7.30549C2069.81 5.58007 2069.12 3.92533 2067.9 2.70528C2066.68 1.48522 2065.03 0.799805 2063.3 0.799805C2061.57 0.799805 2059.92 1.48522 2058.7 2.70527C2057.48 3.92533 2056.79 5.58007 2056.79 7.30549" stroke="#800000"/>
<path d="M2082.82 7.30584C2082.82 9.03126 2082.13 10.686 2080.91 11.9061C2079.69 13.1261 2078.04 13.8115 2076.31 13.8115C2074.59 13.8115 2072.93 13.1261 2071.71 11.9061C2070.49 10.686 2069.81 9.03126 2069.81 7.30584" stroke="#800000"/>
<path d="M2095.83 7.30549C2095.83 5.58007 2095.14 3.92533 2093.92 2.70528C2092.7 1.48522 2091.05 0.799805 2089.32 0.799805C2087.6 0.799805 2085.94 1.48522 2084.72 2.70527C2083.5 3.92533 2082.82 5.58007 2082.82 7.30549" stroke="#800000"/>
<path d="M2108.84 7.30584C2108.84 9.03126 2108.16 10.686 2106.93 11.9061C2105.71 13.1261 2104.06 13.8115 2102.33 13.8115C2100.61 13.8115 2098.95 13.1261 2097.73 11.9061C2096.51 10.686 2095.83 9.03126 2095.83 7.30584" stroke="#800000"/>
<path d="M2121.85 7.30549C2121.85 5.58007 2121.17 3.92533 2119.95 2.70528C2118.73 1.48522 2117.07 0.799805 2115.35 0.799805C2113.62 0.799805 2111.97 1.48522 2110.75 2.70527C2109.53 3.92533 2108.84 5.58007 2108.84 7.30549" stroke="#800000"/>
<path d="M2134.86 7.30584C2134.86 9.03126 2134.18 10.686 2132.96 11.9061C2131.74 13.1261 2130.08 13.8115 2128.36 13.8115C2126.63 13.8115 2124.98 13.1261 2123.76 11.9061C2122.54 10.686 2121.85 9.03126 2121.85 7.30584" stroke="#800000"/>
<path d="M2147.87 7.30549C2147.87 5.58007 2147.19 3.92533 2145.97 2.70528C2144.75 1.48522 2143.09 0.799805 2141.37 0.799805C2139.64 0.799805 2137.99 1.48522 2136.77 2.70527C2135.55 3.92533 2134.86 5.58007 2134.86 7.30549" stroke="#800000"/>
<path d="M2160.89 7.30584C2160.89 9.03126 2160.2 10.686 2158.98 11.9061C2157.76 13.1261 2156.11 13.8115 2154.38 13.8115C2152.65 13.8115 2151 13.1261 2149.78 11.9061C2148.56 10.686 2147.87 9.03126 2147.87 7.30584" stroke="#800000"/>
<path d="M2173.9 7.30549C2173.9 5.58007 2173.21 3.92533 2171.99 2.70528C2170.77 1.48522 2169.12 0.799805 2167.39 0.799805C2165.67 0.799805 2164.01 1.48522 2162.79 2.70527C2161.57 3.92533 2160.89 5.58007 2160.89 7.30549" stroke="#800000"/>
<path d="M2186.91 7.30584C2186.91 9.03126 2186.22 10.686 2185 11.9061C2183.78 13.1261 2182.13 13.8115 2180.4 13.8115C2178.68 13.8115 2177.02 13.1261 2175.8 11.9061C2174.58 10.686 2173.9 9.03126 2173.9 7.30584" stroke="#800000"/>
<path d="M2199.92 7.30549C2199.92 5.58007 2199.23 3.92533 2198.01 2.70528C2196.79 1.48522 2195.14 0.799805 2193.41 0.799805C2191.69 0.799805 2190.03 1.48522 2188.81 2.70527C2187.59 3.92533 2186.91 5.58007 2186.91 7.30549" stroke="#800000"/>
<path d="M2212.93 7.30584C2212.93 9.03126 2212.25 10.686 2211.03 11.9061C2209.81 13.1261 2208.15 13.8115 2206.43 13.8115C2204.7 13.8115 2203.04 13.1261 2201.82 11.9061C2200.6 10.686 2199.92 9.03126 2199.92 7.30584" stroke="#800000"/>
<path d="M2225.94 7.30549C2225.94 5.58007 2225.26 3.92533 2224.04 2.70528C2222.82 1.48522 2221.16 0.799805 2219.44 0.799805C2217.71 0.799805 2216.06 1.48522 2214.84 2.70527C2213.62 3.92533 2212.93 5.58007 2212.93 7.30549" stroke="#800000"/>
<path d="M2238.95 7.30584C2238.95 9.03126 2238.27 10.686 2237.05 11.9061C2235.83 13.1261 2234.17 13.8115 2232.45 13.8115C2230.72 13.8115 2229.07 13.1261 2227.85 11.9061C2226.63 10.686 2225.94 9.03126 2225.94 7.30584" stroke="#800000"/>
<path d="M2251.96 7.30549C2251.96 5.58007 2251.28 3.92533 2250.06 2.70528C2248.84 1.48522 2247.18 0.799805 2245.46 0.799805C2243.73 0.799805 2242.08 1.48522 2240.86 2.70527C2239.64 3.92533 2238.95 5.58007 2238.95 7.30549" stroke="#800000"/>
<path d="M2264.98 7.30584C2264.98 9.03126 2264.29 10.686 2263.07 11.9061C2261.85 13.1261 2260.2 13.8115 2258.47 13.8115C2256.74 13.8115 2255.09 13.1261 2253.87 11.9061C2252.65 10.686 2251.96 9.03126 2251.96 7.30584" stroke="#800000"/>
<path d="M2277.99 7.30549C2277.99 5.58007 2277.3 3.92533 2276.08 2.70528C2274.86 1.48522 2273.21 0.799805 2271.48 0.799805C2269.76 0.799805 2268.1 1.48522 2266.88 2.70527C2265.66 3.92533 2264.98 5.58007 2264.98 7.30549" stroke="#800000"/>
<path d="M2291 7.30584C2291 9.03126 2290.31 10.686 2289.09 11.9061C2287.87 13.1261 2286.22 13.8115 2284.49 13.8115C2282.77 13.8115 2281.11 13.1261 2279.89 11.9061C2278.67 10.686 2277.99 9.03126 2277.99 7.30584" stroke="#800000"/>
<path d="M2304.01 7.30549C2304.01 5.58007 2303.32 3.92533 2302.1 2.70528C2300.88 1.48522 2299.23 0.799805 2297.5 0.799805C2295.78 0.799805 2294.12 1.48522 2292.9 2.70527C2291.68 3.92533 2291 5.58007 2291 7.30549" stroke="#800000"/>
<path d="M2317.02 7.30584C2317.02 9.03126 2316.34 10.686 2315.12 11.9061C2313.9 13.1261 2312.24 13.8115 2310.52 13.8115C2308.79 13.8115 2307.14 13.1261 2305.92 11.9061C2304.7 10.686 2304.01 9.03126 2304.01 7.30584" stroke="#800000"/>
<path d="M2330.03 7.30549C2330.03 5.58007 2329.35 3.92533 2328.13 2.70528C2326.91 1.48522 2325.25 0.799805 2323.53 0.799805C2321.8 0.799805 2320.15 1.48522 2318.93 2.70527C2317.71 3.92533 2317.02 5.58007 2317.02 7.30549" stroke="#800000"/>
<path d="M2343.04 7.30584C2343.04 9.03126 2342.36 10.686 2341.14 11.9061C2339.92 13.1261 2338.26 13.8115 2336.54 13.8115C2334.81 13.8115 2333.16 13.1261 2331.94 11.9061C2330.72 10.686 2330.03 9.03126 2330.03 7.30584" stroke="#800000"/>
<path d="M2356.06 7.30549C2356.06 5.58007 2355.37 3.92533 2354.15 2.70528C2352.93 1.48522 2351.28 0.799805 2349.55 0.799805C2347.82 0.799805 2346.17 1.48522 2344.95 2.70527C2343.73 3.92533 2343.04 5.58007 2343.04 7.30549" stroke="#800000"/>
<path d="M2369.07 7.30584C2369.07 9.03126 2368.38 10.686 2367.16 11.9061C2365.94 13.1261 2364.29 13.8115 2362.56 13.8115C2360.84 13.8115 2359.18 13.1261 2357.96 11.9061C2356.74 10.686 2356.06 9.03126 2356.06 7.30584" stroke="#800000"/>
<path d="M2382.08 7.30549C2382.08 5.58007 2381.39 3.92533 2380.17 2.70528C2378.95 1.48522 2377.3 0.799805 2375.57 0.799805C2373.85 0.799805 2372.19 1.48522 2370.97 2.70527C2369.75 3.92533 2369.07 5.58007 2369.07 7.30549" stroke="#800000"/>
<path d="M2395.09 7.30584C2395.09 9.03126 2394.4 10.686 2393.18 11.9061C2391.96 13.1261 2390.31 13.8115 2388.58 13.8115C2386.86 13.8115 2385.2 13.1261 2383.98 11.9061C2382.76 10.686 2382.08 9.03126 2382.08 7.30584" stroke="#800000"/>
<path d="M2408.1 7.30549C2408.1 5.58007 2407.42 3.92533 2406.2 2.70528C2404.98 1.48522 2403.32 0.799805 2401.6 0.799805C2399.87 0.799805 2398.22 1.48522 2397 2.70527C2395.78 3.92533 2395.09 5.58007 2395.09 7.30549" stroke="#800000"/>
<path d="M2421.11 7.30584C2421.11 9.03126 2420.43 10.686 2419.21 11.9061C2417.99 13.1261 2416.33 13.8115 2414.61 13.8115C2412.88 13.8115 2411.23 13.1261 2410.01 11.9061C2408.79 10.686 2408.1 9.03126 2408.1 7.30584" stroke="#800000"/>
<path d="M2434.12 7.30549C2434.12 5.58007 2433.44 3.92533 2432.22 2.70528C2431 1.48522 2429.34 0.799805 2427.62 0.799805C2425.89 0.799805 2424.24 1.48522 2423.02 2.70527C2421.8 3.92533 2421.11 5.58007 2421.11 7.30549" stroke="#800000"/>
<path d="M2447.14 7.30584C2447.14 9.03126 2446.45 10.686 2445.23 11.9061C2444.01 13.1261 2442.36 13.8115 2440.63 13.8115C2438.9 13.8115 2437.25 13.1261 2436.03 11.9061C2434.81 10.686 2434.12 9.03126 2434.12 7.30584" stroke="#800000"/>
<path d="M2460.15 7.30549C2460.15 5.58007 2459.46 3.92533 2458.24 2.70528C2457.02 1.48522 2455.37 0.799805 2453.64 0.799805C2451.92 0.799805 2450.26 1.48522 2449.04 2.70527C2447.82 3.92533 2447.13 5.58007 2447.13 7.30549" stroke="#800000"/>
<path d="M2473.16 7.30584C2473.16 9.03126 2472.47 10.686 2471.25 11.9061C2470.03 13.1261 2468.38 13.8115 2466.65 13.8115C2464.93 13.8115 2463.27 13.1261 2462.05 11.9061C2460.83 10.686 2460.15 9.03126 2460.15 7.30584" stroke="#800000"/>
<path d="M2486.17 7.30549C2486.17 5.58007 2485.48 3.92533 2484.26 2.70528C2483.04 1.48522 2481.39 0.799805 2479.66 0.799805C2477.94 0.799805 2476.28 1.48522 2475.06 2.70527C2473.84 3.92533 2473.16 5.58007 2473.16 7.30549" stroke="#800000"/>
<path d="M2499.18 7.30584C2499.18 9.03126 2498.49 10.686 2497.27 11.9061C2496.05 13.1261 2494.4 13.8115 2492.67 13.8115C2490.95 13.8115 2489.29 13.1261 2488.07 11.9061C2486.85 10.686 2486.17 9.03126 2486.17 7.30584" stroke="#800000"/>
<path d="M2512.19 7.30549C2512.19 5.58007 2511.51 3.92533 2510.29 2.70528C2509.07 1.48522 2507.41 0.799805 2505.69 0.799805C2503.96 0.799805 2502.31 1.48522 2501.09 2.70527C2499.87 3.92533 2499.18 5.58007 2499.18 7.30549" stroke="#800000"/>
<path d="M2525.2 7.30584C2525.2 9.03126 2524.52 10.686 2523.3 11.9061C2522.08 13.1261 2520.42 13.8115 2518.7 13.8115C2516.97 13.8115 2515.32 13.1261 2514.1 11.9061C2512.88 10.686 2512.19 9.03126 2512.19 7.30584" stroke="#800000"/>
<path d="M2538.21 7.30549C2538.21 5.58007 2537.53 3.92533 2536.31 2.70528C2535.09 1.48522 2533.43 0.799805 2531.71 0.799805C2529.98 0.799805 2528.33 1.48522 2527.11 2.70527C2525.89 3.92533 2525.2 5.58007 2525.2 7.30549" stroke="#800000"/>
<path d="M2551.23 7.30584C2551.23 9.03126 2550.54 10.686 2549.32 11.9061C2548.1 13.1261 2546.45 13.8115 2544.72 13.8115C2542.99 13.8115 2541.34 13.1261 2540.12 11.9061C2538.9 10.686 2538.21 9.03126 2538.21 7.30584" stroke="#800000"/>
<path d="M2564.24 7.30549C2564.24 5.58007 2563.55 3.92533 2562.33 2.70528C2561.11 1.48522 2559.46 0.799805 2557.73 0.799805C2556.01 0.799805 2554.35 1.48522 2553.13 2.70527C2551.91 3.92533 2551.23 5.58007 2551.23 7.30549" stroke="#800000"/>
<path d="M2577.25 7.30584C2577.25 9.03126 2576.56 10.686 2575.34 11.9061C2574.12 13.1261 2572.47 13.8115 2570.74 13.8115C2569.02 13.8115 2567.36 13.1261 2566.14 11.9061C2564.92 10.686 2564.24 9.03126 2564.24 7.30584" stroke="#800000"/>
<path d="M2590.26 7.30549C2590.26 5.58007 2589.57 3.92533 2588.35 2.70528C2587.13 1.48522 2585.48 0.799805 2583.75 0.799805C2582.03 0.799805 2580.37 1.48522 2579.15 2.70527C2577.93 3.92533 2577.25 5.58007 2577.25 7.30549" stroke="#800000"/>
<path d="M2603.27 7.30584C2603.27 9.03126 2602.59 10.686 2601.37 11.9061C2600.15 13.1261 2598.49 13.8115 2596.77 13.8115C2595.04 13.8115 2593.39 13.1261 2592.17 11.9061C2590.95 10.686 2590.26 9.03126 2590.26 7.30584" stroke="#800000"/>
<path d="M2616.28 7.30549C2616.28 5.58007 2615.6 3.92533 2614.38 2.70528C2613.16 1.48522 2611.5 0.799805 2609.78 0.799805C2608.05 0.799805 2606.4 1.48522 2605.18 2.70527C2603.96 3.92533 2603.27 5.58007 2603.27 7.30549" stroke="#800000"/>
<path d="M2629.29 7.30584C2629.29 9.03126 2628.61 10.686 2627.39 11.9061C2626.17 13.1261 2624.51 13.8115 2622.79 13.8115C2621.06 13.8115 2619.41 13.1261 2618.19 11.9061C2616.97 10.686 2616.28 9.03126 2616.28 7.30584" stroke="#800000"/>
<path d="M2642.31 7.30549C2642.31 5.58007 2641.62 3.92533 2640.4 2.70528C2639.18 1.48522 2637.53 0.799805 2635.8 0.799805C2634.07 0.799805 2632.42 1.48522 2631.2 2.70527C2629.98 3.92533 2629.29 5.58007 2629.29 7.30549" stroke="#800000"/>
<path d="M2655.32 7.30584C2655.32 9.03126 2654.63 10.686 2653.41 11.9061C2652.19 13.1261 2650.54 13.8115 2648.81 13.8115C2647.09 13.8115 2645.43 13.1261 2644.21 11.9061C2642.99 10.686 2642.31 9.03126 2642.31 7.30584" stroke="#800000"/>
<path d="M2668.33 7.30549C2668.33 5.58007 2667.64 3.92533 2666.42 2.70528C2665.2 1.48522 2663.55 0.799805 2661.82 0.799805C2660.1 0.799805 2658.44 1.48522 2657.22 2.70527C2656 3.92533 2655.32 5.58007 2655.32 7.30549" stroke="#800000"/>
<path d="M2681.34 7.30584C2681.34 9.03126 2680.65 10.686 2679.43 11.9061C2678.21 13.1261 2676.56 13.8115 2674.83 13.8115C2673.11 13.8115 2671.45 13.1261 2670.23 11.9061C2669.01 10.686 2668.33 9.03126 2668.33 7.30584" stroke="#800000"/>
<path d="M2694.35 7.30549C2694.35 5.58007 2693.67 3.92533 2692.45 2.70528C2691.23 1.48522 2689.57 0.799805 2687.85 0.799805C2686.12 0.799805 2684.46 1.48522 2683.24 2.70527C2682.02 3.92533 2681.34 5.58007 2681.34 7.30549" stroke="#800000"/>
<path d="M2707.36 7.30584C2707.36 9.03126 2706.68 10.686 2705.46 11.9061C2704.24 13.1261 2702.58 13.8115 2700.86 13.8115C2699.13 13.8115 2697.48 13.1261 2696.26 11.9061C2695.04 10.686 2694.35 9.03126 2694.35 7.30584" stroke="#800000"/>
<path d="M2720.37 7.30549C2720.37 5.58007 2719.69 3.92533 2718.47 2.70528C2717.25 1.48522 2715.59 0.799805 2713.87 0.799805C2712.14 0.799805 2710.49 1.48522 2709.27 2.70527C2708.05 3.92533 2707.36 5.58007 2707.36 7.30549" stroke="#800000"/>
<path d="M2733.39 7.30584C2733.39 9.03126 2732.7 10.686 2731.48 11.9061C2730.26 13.1261 2728.61 13.8115 2726.88 13.8115C2725.15 13.8115 2723.5 13.1261 2722.28 11.9061C2721.06 10.686 2720.37 9.03126 2720.37 7.30584" stroke="#800000"/>
<path d="M2746.4 7.30549C2746.4 5.58007 2745.71 3.92533 2744.49 2.70528C2743.27 1.48522 2741.62 0.799805 2739.89 0.799805C2738.17 0.799805 2736.51 1.48522 2735.29 2.70527C2734.07 3.92533 2733.38 5.58007 2733.38 7.30549" stroke="#800000"/>
<path d="M2759.41 7.30584C2759.41 9.03126 2758.72 10.686 2757.5 11.9061C2756.28 13.1261 2754.63 13.8115 2752.9 13.8115C2751.18 13.8115 2749.52 13.1261 2748.3 11.9061C2747.08 10.686 2746.4 9.03126 2746.4 7.30584" stroke="#800000"/>
<path d="M2772.42 7.30549C2772.42 5.58007 2771.73 3.92533 2770.51 2.70528C2769.29 1.48522 2767.64 0.799805 2765.91 0.799805C2764.19 0.799805 2762.53 1.48522 2761.31 2.70527C2760.09 3.92533 2759.41 5.58007 2759.41 7.30549" stroke="#800000"/>
<path d="M2785.43 7.30584C2785.43 9.03126 2784.74 10.686 2783.52 11.9061C2782.3 13.1261 2780.65 13.8115 2778.92 13.8115C2777.2 13.8115 2775.54 13.1261 2774.32 11.9061C2773.1 10.686 2772.42 9.03126 2772.42 7.30584" stroke="#800000"/>
<path d="M2798.44 7.30549C2798.44 5.58007 2797.76 3.92533 2796.54 2.70528C2795.32 1.48522 2793.66 0.799805 2791.94 0.799805C2790.21 0.799805 2788.56 1.48522 2787.34 2.70527C2786.12 3.92533 2785.43 5.58007 2785.43 7.30549" stroke="#800000"/>
<path d="M2811.45 7.30584C2811.45 9.03126 2810.77 10.686 2809.55 11.9061C2808.33 13.1261 2806.67 13.8115 2804.95 13.8115C2803.22 13.8115 2801.57 13.1261 2800.35 11.9061C2799.13 10.686 2798.44 9.03126 2798.44 7.30584" stroke="#800000"/>
<path d="M2824.46 7.30549C2824.46 5.58007 2823.78 3.92533 2822.56 2.70528C2821.34 1.48522 2819.68 0.799805 2817.96 0.799805C2816.23 0.799805 2814.58 1.48522 2813.36 2.70527C2812.14 3.92533 2811.45 5.58007 2811.45 7.30549" stroke="#800000"/>
<path d="M2837.48 7.30584C2837.48 9.03126 2836.79 10.686 2835.57 11.9061C2834.35 13.1261 2832.7 13.8115 2830.97 13.8115C2829.25 13.8115 2827.59 13.1261 2826.37 11.9061C2825.15 10.686 2824.46 9.03126 2824.46 7.30584" stroke="#800000"/>
<path d="M2850.49 7.30549C2850.49 5.58007 2849.8 3.92533 2848.58 2.70528C2847.36 1.48522 2845.71 0.799805 2843.98 0.799805C2842.26 0.799805 2840.6 1.48522 2839.38 2.70527C2838.16 3.92533 2837.48 5.58007 2837.48 7.30549" stroke="#800000"/>
<path d="M2863.5 7.30584C2863.5 9.03126 2862.81 10.686 2861.59 11.9061C2860.37 13.1261 2858.72 13.8115 2856.99 13.8115C2855.27 13.8115 2853.61 13.1261 2852.39 11.9061C2851.17 10.686 2850.49 9.03126 2850.49 7.30584" stroke="#800000"/>
<path d="M2876.51 7.30549C2876.51 5.58007 2875.82 3.92533 2874.6 2.70528C2873.38 1.48522 2871.73 0.799805 2870 0.799805C2868.28 0.799805 2866.62 1.48522 2865.4 2.70527C2864.18 3.92533 2863.5 5.58007 2863.5 7.30549" stroke="#800000"/>
<path d="M2889.52 7.30584C2889.52 9.03126 2888.84 10.686 2887.62 11.9061C2886.4 13.1261 2884.74 13.8115 2883.02 13.8115C2881.29 13.8115 2879.64 13.1261 2878.42 11.9061C2877.2 10.686 2876.51 9.03126 2876.51 7.30584" stroke="#800000"/>
<path d="M2902.53 7.30549C2902.53 5.58007 2901.85 3.92533 2900.63 2.70528C2899.41 1.48522 2897.75 0.799805 2896.03 0.799805C2894.3 0.799805 2892.65 1.48522 2891.43 2.70527C2890.21 3.92533 2889.52 5.58007 2889.52 7.30549" stroke="#800000"/>
<path d="M2915.54 7.30584C2915.54 9.03126 2914.86 10.686 2913.64 11.9061C2912.42 13.1261 2910.76 13.8115 2909.04 13.8115C2907.31 13.8115 2905.66 13.1261 2904.44 11.9061C2903.22 10.686 2902.53 9.03126 2902.53 7.30584" stroke="#800000"/>
<path d="M2928.56 7.30549C2928.56 5.58007 2927.87 3.92533 2926.65 2.70528C2925.43 1.48522 2923.78 0.799805 2922.05 0.799805C2920.32 0.799805 2918.67 1.48522 2917.45 2.70527C2916.23 3.92533 2915.54 5.58007 2915.54 7.30549" stroke="#800000"/>
<path d="M2941.57 7.30584C2941.57 9.03126 2940.88 10.686 2939.66 11.9061C2938.44 13.1261 2936.79 13.8115 2935.06 13.8115C2933.34 13.8115 2931.68 13.1261 2930.46 11.9061C2929.24 10.686 2928.56 9.03126 2928.56 7.30584" stroke="#800000"/>
<path d="M2954.58 7.30549C2954.58 5.58007 2953.89 3.92533 2952.67 2.70528C2951.45 1.48522 2949.8 0.799805 2948.07 0.799805C2946.35 0.799805 2944.69 1.48522 2943.47 2.70527C2942.25 3.92533 2941.57 5.58007 2941.57 7.30549" stroke="#800000"/>
<path d="M2967.59 7.30584C2967.59 9.03126 2966.9 10.686 2965.68 11.9061C2964.46 13.1261 2962.81 13.8115 2961.08 13.8115C2959.36 13.8115 2957.7 13.1261 2956.48 11.9061C2955.26 10.686 2954.58 9.03126 2954.58 7.30584" stroke="#800000"/>
<path d="M2980.6 7.30549C2980.6 5.58007 2979.91 3.92533 2978.69 2.70528C2977.47 1.48522 2975.82 0.799805 2974.09 0.799805C2972.37 0.799805 2970.71 1.48522 2969.49 2.70527C2968.27 3.92533 2967.59 5.58007 2967.59 7.30549" stroke="#800000"/>
<path d="M2993.61 7.30584C2993.61 9.03126 2992.93 10.686 2991.71 11.9061C2990.49 13.1261 2988.83 13.8115 2987.11 13.8115C2985.38 13.8115 2983.73 13.1261 2982.51 11.9061C2981.29 10.686 2980.6 9.03126 2980.6 7.30584" stroke="#800000"/>
<path d="M3006.62 7.30549C3006.62 5.58007 3005.94 3.92533 3004.72 2.70528C3003.5 1.48522 3001.84 0.799805 3000.12 0.799805C2998.39 0.799805 2996.74 1.48522 2995.52 2.70527C2994.3 3.92533 2993.61 5.58007 2993.61 7.30549" stroke="#800000"/>
<path d="M3019.63 7.30584C3019.63 9.03126 3018.95 10.686 3017.73 11.9061C3016.51 13.1261 3014.85 13.8115 3013.13 13.8115C3011.4 13.8115 3009.75 13.1261 3008.53 11.9061C3007.31 10.686 3006.62 9.03126 3006.62 7.30584" stroke="#800000"/>
<path d="M3032.65 7.30549C3032.65 5.58007 3031.96 3.92533 3030.74 2.70528C3029.52 1.48522 3027.87 0.799805 3026.14 0.799805C3024.42 0.799805 3022.76 1.48522 3021.54 2.70527C3020.32 3.92533 3019.63 5.58007 3019.63 7.30549" stroke="#800000"/>
<path d="M3045.66 7.30584C3045.66 9.03126 3044.97 10.686 3043.75 11.9061C3042.53 13.1261 3040.88 13.8115 3039.15 13.8115C3037.43 13.8115 3035.77 13.1261 3034.55 11.9061C3033.33 10.686 3032.65 9.03126 3032.65 7.30584" stroke="#800000"/>
<path d="M3058.67 7.30549C3058.67 5.58007 3057.98 3.92533 3056.76 2.70528C3055.54 1.48522 3053.89 0.799805 3052.16 0.799805C3050.44 0.799805 3048.78 1.48522 3047.56 2.70527C3046.34 3.92533 3045.66 5.58007 3045.66 7.30549" stroke="#800000"/>
<path d="M3071.68 7.30584C3071.68 9.03126 3070.99 10.686 3069.77 11.9061C3068.55 13.1261 3066.9 13.8115 3065.17 13.8115C3063.45 13.8115 3061.79 13.1261 3060.57 11.9061C3059.35 10.686 3058.67 9.03126 3058.67 7.30584" stroke="#800000"/>
<path d="M3084.69 7.30549C3084.69 5.58007 3084.01 3.92533 3082.79 2.70528C3081.57 1.48522 3079.91 0.799805 3078.19 0.799805C3076.46 0.799805 3074.81 1.48522 3073.59 2.70527C3072.37 3.92533 3071.68 5.58007 3071.68 7.30549" stroke="#800000"/>
<path d="M3097.7 7.30584C3097.7 9.03126 3097.02 10.686 3095.8 11.9061C3094.58 13.1261 3092.92 13.8115 3091.2 13.8115C3089.47 13.8115 3087.82 13.1261 3086.6 11.9061C3085.38 10.686 3084.69 9.03126 3084.69 7.30584" stroke="#800000"/>
<path d="M3110.71 7.30549C3110.71 5.58007 3110.03 3.92533 3108.81 2.70528C3107.59 1.48522 3105.93 0.799805 3104.21 0.799805C3102.48 0.799805 3100.83 1.48522 3099.61 2.70527C3098.39 3.92533 3097.7 5.58007 3097.7 7.30549" stroke="#800000"/>
<path d="M3123.73 7.30584C3123.73 9.03126 3123.04 10.686 3121.82 11.9061C3120.6 13.1261 3118.94 13.8115 3117.22 13.8115C3115.49 13.8115 3113.84 13.1261 3112.62 11.9061C3111.4 10.686 3110.71 9.03126 3110.71 7.30584" stroke="#800000"/>
<path d="M3136.74 7.30549C3136.74 5.58007 3136.05 3.92533 3134.83 2.70528C3133.61 1.48522 3131.96 0.799805 3130.23 0.799805C3128.51 0.799805 3126.85 1.48522 3125.63 2.70527C3124.41 3.92533 3123.73 5.58007 3123.73 7.30549" stroke="#800000"/>
<path d="M3149.75 7.30584C3149.75 9.03126 3149.06 10.686 3147.84 11.9061C3146.62 13.1261 3144.97 13.8115 3143.24 13.8115C3141.52 13.8115 3139.86 13.1261 3138.64 11.9061C3137.42 10.686 3136.74 9.03126 3136.74 7.30584" stroke="#800000"/>
<path d="M3162.76 7.30549C3162.76 5.58007 3162.07 3.92533 3160.85 2.70528C3159.63 1.48522 3157.98 0.799805 3156.25 0.799805C3154.53 0.799805 3152.87 1.48522 3151.65 2.70527C3150.43 3.92533 3149.75 5.58007 3149.75 7.30549" stroke="#800000"/>
<path d="M3175.77 7.30584C3175.77 9.03126 3175.09 10.686 3173.87 11.9061C3172.65 13.1261 3170.99 13.8115 3169.27 13.8115C3167.54 13.8115 3165.89 13.1261 3164.67 11.9061C3163.45 10.686 3162.76 9.03126 3162.76 7.30584" stroke="#800000"/>
<path d="M3188.78 7.30549C3188.78 5.58007 3188.1 3.92533 3186.88 2.70528C3185.66 1.48522 3184 0.799805 3182.28 0.799805C3180.55 0.799805 3178.9 1.48522 3177.68 2.70527C3176.46 3.92533 3175.77 5.58007 3175.77 7.30549" stroke="#800000"/>
<path d="M3201.79 7.30584C3201.79 9.03126 3201.11 10.686 3199.89 11.9061C3198.67 13.1261 3197.01 13.8115 3195.29 13.8115C3193.56 13.8115 3191.91 13.1261 3190.69 11.9061C3189.47 10.686 3188.78 9.03126 3188.78 7.30584" stroke="#800000"/>
<path d="M3214.8 7.30549C3214.8 5.58007 3214.12 3.92533 3212.9 2.70528C3211.68 1.48522 3210.02 0.799805 3208.3 0.799805C3206.57 0.799805 3204.92 1.48522 3203.7 2.70527C3202.48 3.92533 3201.79 5.58007 3201.79 7.30549" stroke="#800000"/>
<path d="M3227.82 7.30584C3227.82 9.03126 3227.13 10.686 3225.91 11.9061C3224.69 13.1261 3223.04 13.8115 3221.31 13.8115C3219.58 13.8115 3217.93 13.1261 3216.71 11.9061C3215.49 10.686 3214.8 9.03126 3214.8 7.30584" stroke="#800000"/>
<path d="M3240.83 7.30549C3240.83 5.58007 3240.14 3.92533 3238.92 2.70528C3237.7 1.48522 3236.05 0.799805 3234.32 0.799805C3232.6 0.799805 3230.94 1.48522 3229.72 2.70527C3228.5 3.92533 3227.82 5.58007 3227.82 7.30549" stroke="#800000"/>
<path d="M3253.84 7.30584C3253.84 9.03126 3253.15 10.686 3251.93 11.9061C3250.71 13.1261 3249.06 13.8115 3247.33 13.8115C3245.61 13.8115 3243.95 13.1261 3242.73 11.9061C3241.51 10.686 3240.83 9.03126 3240.83 7.30584" stroke="#800000"/>
<path d="M3266.85 7.30549C3266.85 5.58007 3266.16 3.92533 3264.94 2.70528C3263.72 1.48522 3262.07 0.799805 3260.34 0.799805C3258.62 0.799805 3256.96 1.48522 3255.74 2.70527C3254.52 3.92533 3253.84 5.58007 3253.84 7.30549" stroke="#800000"/>
<path d="M3279.86 7.30584C3279.86 9.03126 3279.18 10.686 3277.96 11.9061C3276.74 13.1261 3275.08 13.8115 3273.36 13.8115C3271.63 13.8115 3269.98 13.1261 3268.76 11.9061C3267.54 10.686 3266.85 9.03126 3266.85 7.30584" stroke="#800000"/>
<path d="M3292.87 7.30549C3292.87 5.58007 3292.19 3.92533 3290.97 2.70528C3289.75 1.48522 3288.09 0.799805 3286.37 0.799805C3284.64 0.799805 3282.99 1.48522 3281.77 2.70527C3280.55 3.92533 3279.86 5.58007 3279.86 7.30549" stroke="#800000"/>
<path d="M3305.88 7.30584C3305.88 9.03126 3305.2 10.686 3303.98 11.9061C3302.76 13.1261 3301.1 13.8115 3299.38 13.8115C3297.65 13.8115 3296 13.1261 3294.78 11.9061C3293.56 10.686 3292.87 9.03126 3292.87 7.30584" stroke="#800000"/>
<path d="M3318.9 7.30549C3318.9 5.58007 3318.21 3.92533 3316.99 2.70528C3315.77 1.48522 3314.12 0.799805 3312.39 0.799805C3310.66 0.799805 3309.01 1.48522 3307.79 2.70527C3306.57 3.92533 3305.88 5.58007 3305.88 7.30549" stroke="#800000"/>
<path d="M3331.91 7.30584C3331.91 9.03126 3331.22 10.686 3330 11.9061C3328.78 13.1261 3327.13 13.8115 3325.4 13.8115C3323.68 13.8115 3322.02 13.1261 3320.8 11.9061C3319.58 10.686 3318.9 9.03126 3318.9 7.30584" stroke="#800000"/>
<path d="M3344.92 7.30549C3344.92 5.58007 3344.23 3.92533 3343.01 2.70528C3341.79 1.48522 3340.14 0.799805 3338.41 0.799805C3336.69 0.799805 3335.03 1.48522 3333.81 2.70527C3332.59 3.92533 3331.91 5.58007 3331.91 7.30549" stroke="#800000"/>
<path d="M3357.93 7.30584C3357.93 9.03126 3357.24 10.686 3356.02 11.9061C3354.8 13.1261 3353.15 13.8115 3351.42 13.8115C3349.7 13.8115 3348.04 13.1261 3346.82 11.9061C3345.6 10.686 3344.92 9.03126 3344.92 7.30584" stroke="#800000"/>
<path d="M3370.94 7.30549C3370.94 5.58007 3370.26 3.92533 3369.04 2.70528C3367.82 1.48522 3366.16 0.799805 3364.44 0.799805C3362.71 0.799805 3361.06 1.48522 3359.84 2.70527C3358.62 3.92533 3357.93 5.58007 3357.93 7.30549" stroke="#800000"/>
<path d="M3383.95 7.30584C3383.95 9.03126 3383.27 10.686 3382.05 11.9061C3380.83 13.1261 3379.17 13.8115 3377.45 13.8115C3375.72 13.8115 3374.07 13.1261 3372.85 11.9061C3371.63 10.686 3370.94 9.03126 3370.94 7.30584" stroke="#800000"/>
<path d="M3396.96 7.30549C3396.96 5.58007 3396.28 3.92533 3395.06 2.70528C3393.84 1.48522 3392.18 0.799805 3390.46 0.799805C3388.73 0.799805 3387.08 1.48522 3385.86 2.70527C3384.64 3.92533 3383.95 5.58007 3383.95 7.30549" stroke="#800000"/>
<path d="M3409.98 7.30584C3409.98 9.03126 3409.29 10.686 3408.07 11.9061C3406.85 13.1261 3405.19 13.8115 3403.47 13.8115C3401.74 13.8115 3400.09 13.1261 3398.87 11.9061C3397.65 10.686 3396.96 9.03126 3396.96 7.30584" stroke="#800000"/>
<path d="M3422.99 7.30549C3422.99 5.58007 3422.3 3.92533 3421.08 2.70528C3419.86 1.48522 3418.21 0.799805 3416.48 0.799805C3414.76 0.799805 3413.1 1.48522 3411.88 2.70527C3410.66 3.92533 3409.98 5.58007 3409.98 7.30549" stroke="#800000"/>
<path d="M3436 7.30584C3436 9.03126 3435.31 10.686 3434.09 11.9061C3432.87 13.1261 3431.22 13.8115 3429.49 13.8115C3427.77 13.8115 3426.11 13.1261 3424.89 11.9061C3423.67 10.686 3422.99 9.03126 3422.99 7.30584" stroke="#800000"/>
<path d="M3449.01 7.30549C3449.01 5.58007 3448.32 3.92533 3447.1 2.70528C3445.88 1.48522 3444.23 0.799805 3442.5 0.799805C3440.78 0.799805 3439.12 1.48522 3437.9 2.70527C3436.68 3.92533 3436 5.58007 3436 7.30549" stroke="#800000"/>
<path d="M3462.02 7.30584C3462.02 9.03126 3461.34 10.686 3460.12 11.9061C3458.9 13.1261 3457.24 13.8115 3455.52 13.8115C3453.79 13.8115 3452.14 13.1261 3450.92 11.9061C3449.7 10.686 3449.01 9.03126 3449.01 7.30584" stroke="#800000"/>
<path d="M3475.03 7.30549C3475.03 5.58007 3474.35 3.92533 3473.13 2.70528C3471.91 1.48522 3470.25 0.799805 3468.53 0.799805C3466.8 0.799805 3465.15 1.48522 3463.93 2.70527C3462.71 3.92533 3462.02 5.58007 3462.02 7.30549" stroke="#800000"/>
<path d="M3488.04 7.30584C3488.04 9.03126 3487.36 10.686 3486.14 11.9061C3484.92 13.1261 3483.26 13.8115 3481.54 13.8115C3479.81 13.8115 3478.16 13.1261 3476.94 11.9061C3475.72 10.686 3475.03 9.03126 3475.03 7.30584" stroke="#800000"/>
<path d="M3501.05 7.30549C3501.05 5.58007 3500.37 3.92533 3499.15 2.70528C3497.93 1.48522 3496.27 0.799805 3494.55 0.799805C3492.82 0.799805 3491.17 1.48522 3489.95 2.70527C3488.73 3.92533 3488.04 5.58007 3488.04 7.30549" stroke="#800000"/>
<path d="M3514.07 7.30584C3514.07 9.03126 3513.38 10.686 3512.16 11.9061C3510.94 13.1261 3509.29 13.8115 3507.56 13.8115C3505.83 13.8115 3504.18 13.1261 3502.96 11.9061C3501.74 10.686 3501.05 9.03126 3501.05 7.30584" stroke="#800000"/>
<path d="M3527.08 7.30549C3527.08 5.58007 3526.39 3.92533 3525.17 2.70528C3523.95 1.48522 3522.3 0.799805 3520.57 0.799805C3518.85 0.799805 3517.19 1.48522 3515.97 2.70527C3514.75 3.92533 3514.07 5.58007 3514.07 7.30549" stroke="#800000"/>
<path d="M3540.09 7.30584C3540.09 9.03126 3539.4 10.686 3538.18 11.9061C3536.96 13.1261 3535.31 13.8115 3533.58 13.8115C3531.86 13.8115 3530.2 13.1261 3528.98 11.9061C3527.76 10.686 3527.08 9.03126 3527.08 7.30584" stroke="#800000"/>
<path d="M3553.1 7.30549C3553.1 5.58007 3552.41 3.92533 3551.19 2.70528C3549.97 1.48522 3548.32 0.799805 3546.59 0.799805C3544.87 0.799805 3543.21 1.48522 3541.99 2.70527C3540.77 3.92533 3540.09 5.58007 3540.09 7.30549" stroke="#800000"/>
<path d="M3566.11 7.30584C3566.11 9.03126 3565.43 10.686 3564.21 11.9061C3562.99 13.1261 3561.33 13.8115 3559.61 13.8115C3557.88 13.8115 3556.23 13.1261 3555.01 11.9061C3553.79 10.686 3553.1 9.03126 3553.1 7.30584" stroke="#800000"/>
<path d="M3579.12 7.30549C3579.12 5.58007 3578.44 3.92533 3577.22 2.70528C3576 1.48522 3574.34 0.799805 3572.62 0.799805C3570.89 0.799805 3569.24 1.48522 3568.02 2.70527C3566.8 3.92533 3566.11 5.58007 3566.11 7.30549" stroke="#800000"/>
<path d="M3592.13 7.30584C3592.13 9.03126 3591.45 10.686 3590.23 11.9061C3589.01 13.1261 3587.35 13.8115 3585.63 13.8115C3583.9 13.8115 3582.25 13.1261 3581.03 11.9061C3579.81 10.686 3579.12 9.03126 3579.12 7.30584" stroke="#800000"/>
<path d="M3605.15 7.30549C3605.15 5.58007 3604.46 3.92533 3603.24 2.70528C3602.02 1.48522 3600.36 0.799805 3598.64 0.799805C3596.91 0.799805 3595.26 1.48522 3594.04 2.70527C3592.82 3.92533 3592.13 5.58007 3592.13 7.30549" stroke="#800000"/>
<path d="M3618.16 7.30584C3618.16 9.03126 3617.47 10.686 3616.25 11.9061C3615.03 13.1261 3613.38 13.8115 3611.65 13.8115C3609.93 13.8115 3608.27 13.1261 3607.05 11.9061C3605.83 10.686 3605.15 9.03126 3605.15 7.30584" stroke="#800000"/>
<path d="M3631.17 7.30549C3631.17 5.58007 3630.48 3.92533 3629.26 2.70528C3628.04 1.48522 3626.39 0.799805 3624.66 0.799805C3622.94 0.799805 3621.28 1.48522 3620.06 2.70527C3618.84 3.92533 3618.16 5.58007 3618.16 7.30549" stroke="#800000"/>
<path d="M3644.18 7.30584C3644.18 9.03126 3643.49 10.686 3642.27 11.9061C3641.05 13.1261 3639.4 13.8115 3637.67 13.8115C3635.95 13.8115 3634.29 13.1261 3633.07 11.9061C3631.85 10.686 3631.17 9.03126 3631.17 7.30584" stroke="#800000"/>
<path d="M3657.19 7.30549C3657.19 5.58007 3656.51 3.92533 3655.29 2.70528C3654.07 1.48522 3652.41 0.799805 3650.69 0.799805C3648.96 0.799805 3647.31 1.48522 3646.09 2.70527C3644.87 3.92533 3644.18 5.58007 3644.18 7.30549" stroke="#800000"/>
<path d="M3670.2 7.30584C3670.2 9.03126 3669.52 10.686 3668.3 11.9061C3667.08 13.1261 3665.42 13.8115 3663.7 13.8115C3661.97 13.8115 3660.32 13.1261 3659.1 11.9061C3657.88 10.686 3657.19 9.03126 3657.19 7.30584" stroke="#800000"/>
<path d="M3683.21 7.30549C3683.21 5.58007 3682.53 3.92533 3681.31 2.70528C3680.09 1.48522 3678.43 0.799805 3676.71 0.799805C3674.98 0.799805 3673.33 1.48522 3672.11 2.70527C3670.89 3.92533 3670.2 5.58007 3670.2 7.30549" stroke="#800000"/>
<path d="M3696.23 7.30584C3696.23 9.03126 3695.54 10.686 3694.32 11.9061C3693.1 13.1261 3691.44 13.8115 3689.72 13.8115C3687.99 13.8115 3686.34 13.1261 3685.12 11.9061C3683.9 10.686 3683.21 9.03126 3683.21 7.30584" stroke="#800000"/>
<path d="M3709.24 7.30549C3709.24 5.58007 3708.55 3.92533 3707.33 2.70528C3706.11 1.48522 3704.46 0.799805 3702.73 0.799805C3701 0.799805 3699.35 1.48522 3698.13 2.70527C3696.91 3.92533 3696.22 5.58007 3696.22 7.30549" stroke="#800000"/>
<path d="M3722.25 7.30584C3722.25 9.03126 3721.56 10.686 3720.34 11.9061C3719.12 13.1261 3717.47 13.8115 3715.74 13.8115C3714.02 13.8115 3712.36 13.1261 3711.14 11.9061C3709.92 10.686 3709.24 9.03126 3709.24 7.30584" stroke="#800000"/>
<path d="M3735.26 7.30549C3735.26 5.58007 3734.57 3.92533 3733.35 2.70528C3732.13 1.48522 3730.48 0.799805 3728.75 0.799805C3727.03 0.799805 3725.37 1.48522 3724.15 2.70527C3722.93 3.92533 3722.25 5.58007 3722.25 7.30549" stroke="#800000"/>
<path d="M3748.27 7.30584C3748.27 9.03126 3747.58 10.686 3746.36 11.9061C3745.14 13.1261 3743.49 13.8115 3741.76 13.8115C3740.04 13.8115 3738.38 13.1261 3737.16 11.9061C3735.94 10.686 3735.26 9.03126 3735.26 7.30584" stroke="#800000"/>
<path d="M3761.28 7.30549C3761.28 5.58007 3760.6 3.92533 3759.38 2.70528C3758.16 1.48522 3756.5 0.799805 3754.78 0.799805C3753.05 0.799805 3751.4 1.48522 3750.18 2.70527C3748.96 3.92533 3748.27 5.58007 3748.27 7.30549" stroke="#800000"/>
<path d="M3774.29 7.30584C3774.29 9.03126 3773.61 10.686 3772.39 11.9061C3771.17 13.1261 3769.51 13.8115 3767.79 13.8115C3766.06 13.8115 3764.41 13.1261 3763.19 11.9061C3761.97 10.686 3761.28 9.03126 3761.28 7.30584" stroke="#800000"/>
<path d="M3787.3 7.30549C3787.3 5.58007 3786.62 3.92533 3785.4 2.70528C3784.18 1.48522 3782.52 0.799805 3780.8 0.799805C3779.07 0.799805 3777.42 1.48522 3776.2 2.70527C3774.98 3.92533 3774.29 5.58007 3774.29 7.30549" stroke="#800000"/>
<path d="M3800.32 7.30584C3800.32 9.03126 3799.63 10.686 3798.41 11.9061C3797.19 13.1261 3795.54 13.8115 3793.81 13.8115C3792.08 13.8115 3790.43 13.1261 3789.21 11.9061C3787.99 10.686 3787.3 9.03126 3787.3 7.30584" stroke="#800000"/>
<path d="M3813.33 7.30549C3813.33 5.58007 3812.64 3.92533 3811.42 2.70528C3810.2 1.48522 3808.55 0.799805 3806.82 0.799805C3805.1 0.799805 3803.44 1.48522 3802.22 2.70527C3801 3.92533 3800.32 5.58007 3800.32 7.30549" stroke="#800000"/>
<path d="M3826.34 7.30584C3826.34 9.03126 3825.65 10.686 3824.43 11.9061C3823.21 13.1261 3821.56 13.8115 3819.83 13.8115C3818.11 13.8115 3816.45 13.1261 3815.23 11.9061C3814.01 10.686 3813.33 9.03126 3813.33 7.30584" stroke="#800000"/>
<path d="M3839.35 7.30549C3839.35 5.58007 3838.66 3.92533 3837.44 2.70528C3836.22 1.48522 3834.57 0.799805 3832.84 0.799805C3831.12 0.799805 3829.46 1.48522 3828.24 2.70527C3827.02 3.92533 3826.34 5.58007 3826.34 7.30549" stroke="#800000"/>
<path d="M3852.36 7.30584C3852.36 9.03126 3851.68 10.686 3850.46 11.9061C3849.24 13.1261 3847.58 13.8115 3845.86 13.8115C3844.13 13.8115 3842.48 13.1261 3841.26 11.9061C3840.04 10.686 3839.35 9.03126 3839.35 7.30584" stroke="#800000"/>
<path d="M3865.37 7.30549C3865.37 5.58007 3864.69 3.92533 3863.47 2.70528C3862.25 1.48522 3860.59 0.799805 3858.87 0.799805C3857.14 0.799805 3855.49 1.48522 3854.27 2.70527C3853.05 3.92533 3852.36 5.58007 3852.36 7.30549" stroke="#800000"/>
<path d="M3878.38 7.30584C3878.38 9.03126 3877.7 10.686 3876.48 11.9061C3875.26 13.1261 3873.6 13.8115 3871.88 13.8115C3870.15 13.8115 3868.5 13.1261 3867.28 11.9061C3866.06 10.686 3865.37 9.03126 3865.37 7.30584" stroke="#800000"/>
<path d="M3891.4 7.30549C3891.4 5.58007 3890.71 3.92533 3889.49 2.70528C3888.27 1.48522 3886.61 0.799805 3884.89 0.799805C3883.16 0.799805 3881.51 1.48522 3880.29 2.70527C3879.07 3.92533 3878.38 5.58007 3878.38 7.30549" stroke="#800000"/>
<path d="M3904.41 7.30584C3904.41 9.03126 3903.72 10.686 3902.5 11.9061C3901.28 13.1261 3899.63 13.8115 3897.9 13.8115C3896.18 13.8115 3894.52 13.1261 3893.3 11.9061C3892.08 10.686 3891.4 9.03126 3891.4 7.30584" stroke="#800000"/>
<path d="M3917.42 7.30549C3917.42 5.58007 3916.73 3.92533 3915.51 2.70528C3914.29 1.48522 3912.64 0.799805 3910.91 0.799805C3909.19 0.799805 3907.53 1.48522 3906.31 2.70527C3905.09 3.92533 3904.41 5.58007 3904.41 7.30549" stroke="#800000"/>
<path d="M3930.43 7.30584C3930.43 9.03126 3929.74 10.686 3928.52 11.9061C3927.3 13.1261 3925.65 13.8115 3923.92 13.8115C3922.2 13.8115 3920.54 13.1261 3919.32 11.9061C3918.1 10.686 3917.42 9.03126 3917.42 7.30584" stroke="#800000"/>
<path d="M3943.44 7.30549C3943.44 5.58007 3942.76 3.92533 3941.54 2.70528C3940.32 1.48522 3938.66 0.799805 3936.94 0.799805C3935.21 0.799805 3933.56 1.48522 3932.34 2.70527C3931.12 3.92533 3930.43 5.58007 3930.43 7.30549" stroke="#800000"/>
<path d="M3956.45 7.30584C3956.45 9.03126 3955.77 10.686 3954.55 11.9061C3953.33 13.1261 3951.67 13.8115 3949.95 13.8115C3948.22 13.8115 3946.57 13.1261 3945.35 11.9061C3944.13 10.686 3943.44 9.03126 3943.44 7.30584" stroke="#800000"/>
<path d="M3969.46 7.30549C3969.46 5.58007 3968.78 3.92533 3967.56 2.70528C3966.34 1.48522 3964.68 0.799805 3962.96 0.799805C3961.23 0.799805 3959.58 1.48522 3958.36 2.70527C3957.14 3.92533 3956.45 5.58007 3956.45 7.30549" stroke="#800000"/>
<path d="M3982.48 7.30584C3982.48 9.03126 3981.79 10.686 3980.57 11.9061C3979.35 13.1261 3977.69 13.8115 3975.97 13.8115C3974.24 13.8115 3972.59 13.1261 3971.37 11.9061C3970.15 10.686 3969.46 9.03126 3969.46 7.30584" stroke="#800000"/>
<path d="M3995.49 7.30549C3995.49 5.58007 3994.8 3.92533 3993.58 2.70528C3992.36 1.48522 3990.71 0.799805 3988.98 0.799805C3987.25 0.799805 3985.6 1.48522 3984.38 2.70527C3983.16 3.92533 3982.47 5.58007 3982.47 7.30549" stroke="#800000"/>
<path d="M4008.5 7.30584C4008.5 9.03126 4007.81 10.686 4006.59 11.9061C4005.37 13.1261 4003.72 13.8115 4001.99 13.8115C4000.27 13.8115 3998.61 13.1261 3997.39 11.9061C3996.17 10.686 3995.49 9.03126 3995.49 7.30584" stroke="#800000"/>
<path d="M4021.51 7.30549C4021.51 5.58007 4020.82 3.92533 4019.6 2.70528C4018.38 1.48522 4016.73 0.799805 4015 0.799805C4013.28 0.799805 4011.62 1.48522 4010.4 2.70527C4009.18 3.92533 4008.5 5.58007 4008.5 7.30549" stroke="#800000"/>
<path d="M4034.52 7.30584C4034.52 9.03126 4033.83 10.686 4032.61 11.9061C4031.39 13.1261 4029.74 13.8115 4028.01 13.8115C4026.29 13.8115 4024.63 13.1261 4023.41 11.9061C4022.19 10.686 4021.51 9.03126 4021.51 7.30584" stroke="#800000"/>
<path d="M4047.53 7.30549C4047.53 5.58007 4046.85 3.92533 4045.63 2.70528C4044.41 1.48522 4042.75 0.799805 4041.03 0.799805C4039.3 0.799805 4037.65 1.48522 4036.43 2.70527C4035.2 3.92533 4034.52 5.58007 4034.52 7.30549" stroke="#800000"/>
<path d="M4060.54 7.30584C4060.54 9.03126 4059.86 10.686 4058.64 11.9061C4057.42 13.1261 4055.76 13.8115 4054.04 13.8115C4052.31 13.8115 4050.66 13.1261 4049.44 11.9061C4048.22 10.686 4047.53 9.03126 4047.53 7.30584" stroke="#800000"/>
<path d="M4073.55 7.30549C4073.55 5.58007 4072.87 3.92533 4071.65 2.70528C4070.43 1.48522 4068.77 0.799805 4067.05 0.799805C4065.32 0.799805 4063.67 1.48522 4062.45 2.70527C4061.23 3.92533 4060.54 5.58007 4060.54 7.30549" stroke="#800000"/>
<path d="M4086.57 7.30584C4086.57 9.03126 4085.88 10.686 4084.66 11.9061C4083.44 13.1261 4081.79 13.8115 4080.06 13.8115C4078.33 13.8115 4076.68 13.1261 4075.46 11.9061C4074.24 10.686 4073.55 9.03126 4073.55 7.30584" stroke="#800000"/>
<path d="M4099.58 7.30549C4099.58 5.58007 4098.89 3.92533 4097.67 2.70528C4096.45 1.48522 4094.8 0.799805 4093.07 0.799805C4091.35 0.799805 4089.69 1.48522 4088.47 2.70527C4087.25 3.92533 4086.57 5.58007 4086.57 7.30549" stroke="#800000"/>
<path d="M4112.59 7.30584C4112.59 9.03126 4111.9 10.686 4110.68 11.9061C4109.46 13.1261 4107.81 13.8115 4106.08 13.8115C4104.36 13.8115 4102.7 13.1261 4101.48 11.9061C4100.26 10.686 4099.58 9.03126 4099.58 7.30584" stroke="#800000"/>
<path d="M4125.6 7.30549C4125.6 5.58007 4124.91 3.92533 4123.69 2.70528C4122.47 1.48522 4120.82 0.799805 4119.09 0.799805C4117.37 0.799805 4115.71 1.48522 4114.49 2.70527C4113.27 3.92533 4112.59 5.58007 4112.59 7.30549" stroke="#800000"/>
<path d="M4138.61 7.30584C4138.61 9.03126 4137.93 10.686 4136.71 11.9061C4135.49 13.1261 4133.83 13.8115 4132.11 13.8115C4130.38 13.8115 4128.73 13.1261 4127.51 11.9061C4126.29 10.686 4125.6 9.03126 4125.6 7.30584" stroke="#800000"/>
<path d="M4151.62 7.30549C4151.62 5.58007 4150.94 3.92533 4149.72 2.70528C4148.5 1.48522 4146.84 0.799805 4145.12 0.799805C4143.39 0.799805 4141.74 1.48522 4140.52 2.70527C4139.3 3.92533 4138.61 5.58007 4138.61 7.30549" stroke="#800000"/>
<path d="M4164.63 7.30584C4164.63 9.03126 4163.95 10.686 4162.73 11.9061C4161.51 13.1261 4159.85 13.8115 4158.13 13.8115C4156.4 13.8115 4154.75 13.1261 4153.53 11.9061C4152.31 10.686 4151.62 9.03126 4151.62 7.30584" stroke="#800000"/>
<path d="M4177.65 7.30549C4177.65 5.58007 4176.96 3.92533 4175.74 2.70528C4174.52 1.48522 4172.87 0.799805 4171.14 0.799805C4169.42 0.799805 4167.76 1.48522 4166.54 2.70527C4165.32 3.92533 4164.63 5.58007 4164.63 7.30549" stroke="#800000"/>
<path d="M4190.66 7.30584C4190.66 9.03126 4189.97 10.686 4188.75 11.9061C4187.53 13.1261 4185.88 13.8115 4184.15 13.8115C4182.43 13.8115 4180.77 13.1261 4179.55 11.9061C4178.33 10.686 4177.65 9.03126 4177.65 7.30584" stroke="#800000"/>
<path d="M4203.67 7.30549C4203.67 5.58007 4202.98 3.92533 4201.76 2.70528C4200.54 1.48522 4198.89 0.799805 4197.16 0.799805C4195.44 0.799805 4193.78 1.48522 4192.56 2.70527C4191.34 3.92533 4190.66 5.58007 4190.66 7.30549" stroke="#800000"/>
<path d="M4216.68 7.30584C4216.68 9.03126 4215.99 10.686 4214.77 11.9061C4213.55 13.1261 4211.9 13.8115 4210.17 13.8115C4208.45 13.8115 4206.79 13.1261 4205.57 11.9061C4204.35 10.686 4203.67 9.03126 4203.67 7.30584" stroke="#800000"/>
<path d="M4229.69 7.30549C4229.69 5.58007 4229.01 3.92533 4227.79 2.70528C4226.57 1.48522 4224.91 0.799805 4223.19 0.799805C4221.46 0.799805 4219.81 1.48522 4218.59 2.70527C4217.37 3.92533 4216.68 5.58007 4216.68 7.30549" stroke="#800000"/>
<path d="M4242.7 7.30584C4242.7 9.03126 4242.02 10.686 4240.8 11.9061C4239.58 13.1261 4237.92 13.8115 4236.2 13.8115C4234.47 13.8115 4232.82 13.1261 4231.6 11.9061C4230.38 10.686 4229.69 9.03126 4229.69 7.30584" stroke="#800000"/>
<path d="M4255.71 7.30549C4255.71 5.58007 4255.03 3.92533 4253.81 2.70528C4252.59 1.48522 4250.93 0.799805 4249.21 0.799805C4247.48 0.799805 4245.83 1.48522 4244.61 2.70527C4243.39 3.92533 4242.7 5.58007 4242.7 7.30549" stroke="#800000"/>
<path d="M4268.73 7.30584C4268.73 9.03126 4268.04 10.686 4266.82 11.9061C4265.6 13.1261 4263.95 13.8115 4262.22 13.8115C4260.5 13.8115 4258.84 13.1261 4257.62 11.9061C4256.4 10.686 4255.71 9.03126 4255.71 7.30584" stroke="#800000"/>
<path d="M4281.74 7.30549C4281.74 5.58007 4281.05 3.92533 4279.83 2.70528C4278.61 1.48522 4276.96 0.799805 4275.23 0.799805C4273.51 0.799805 4271.85 1.48522 4270.63 2.70527C4269.41 3.92533 4268.73 5.58007 4268.73 7.30549" stroke="#800000"/>
<path d="M4294.75 7.30584C4294.75 9.03126 4294.06 10.686 4292.84 11.9061C4291.62 13.1261 4289.97 13.8115 4288.24 13.8115C4286.52 13.8115 4284.86 13.1261 4283.64 11.9061C4282.42 10.686 4281.74 9.03126 4281.74 7.30584" stroke="#800000"/>
<path d="M4307.76 7.30549C4307.76 5.58007 4307.07 3.92533 4305.85 2.70528C4304.63 1.48522 4302.98 0.799805 4301.25 0.799805C4299.53 0.799805 4297.87 1.48522 4296.65 2.70527C4295.43 3.92533 4294.75 5.58007 4294.75 7.30549" stroke="#800000"/>
<path d="M4320.77 7.30584C4320.77 9.03126 4320.09 10.686 4318.87 11.9061C4317.65 13.1261 4315.99 13.8115 4314.27 13.8115C4312.54 13.8115 4310.89 13.1261 4309.67 11.9061C4308.45 10.686 4307.76 9.03126 4307.76 7.30584" stroke="#800000"/>
<path d="M4333.78 7.30549C4333.78 5.58007 4333.1 3.92533 4331.88 2.70528C4330.66 1.48522 4329 0.799805 4327.28 0.799805C4325.55 0.799805 4323.9 1.48522 4322.68 2.70527C4321.46 3.92533 4320.77 5.58007 4320.77 7.30549" stroke="#800000"/>
<path d="M4346.79 7.30584C4346.79 9.03126 4346.11 10.686 4344.89 11.9061C4343.67 13.1261 4342.01 13.8115 4340.29 13.8115C4338.56 13.8115 4336.91 13.1261 4335.69 11.9061C4334.47 10.686 4333.78 9.03126 4333.78 7.30584" stroke="#800000"/>
<path d="M4359.81 7.30549C4359.81 5.58007 4359.12 3.92533 4357.9 2.70528C4356.68 1.48522 4355.03 0.799805 4353.3 0.799805C4351.58 0.799805 4349.92 1.48522 4348.7 2.70527C4347.48 3.92533 4346.79 5.58007 4346.79 7.30549" stroke="#800000"/>
<path d="M4372.82 7.30584C4372.82 9.03126 4372.13 10.686 4370.91 11.9061C4369.69 13.1261 4368.04 13.8115 4366.31 13.8115C4364.59 13.8115 4362.93 13.1261 4361.71 11.9061C4360.49 10.686 4359.81 9.03126 4359.81 7.30584" stroke="#800000"/>
<path d="M4385.83 7.30549C4385.83 5.58007 4385.14 3.92533 4383.92 2.70528C4382.7 1.48522 4381.05 0.799805 4379.32 0.799805C4377.6 0.799805 4375.94 1.48522 4374.72 2.70527C4373.5 3.92533 4372.82 5.58007 4372.82 7.30549" stroke="#800000"/>
<path d="M4398.84 7.30584C4398.84 9.03126 4398.16 10.686 4396.94 11.9061C4395.72 13.1261 4394.06 13.8115 4392.34 13.8115C4390.61 13.8115 4388.96 13.1261 4387.74 11.9061C4386.52 10.686 4385.83 9.03126 4385.83 7.30584" stroke="#800000"/>
<path d="M4411.85 7.30549C4411.85 5.58007 4411.17 3.92533 4409.95 2.70528C4408.73 1.48522 4407.07 0.799805 4405.35 0.799805C4403.62 0.799805 4401.97 1.48522 4400.75 2.70527C4399.53 3.92533 4398.84 5.58007 4398.84 7.30549" stroke="#800000"/>
<path d="M4424.86 7.30584C4424.86 9.03126 4424.18 10.686 4422.96 11.9061C4421.74 13.1261 4420.08 13.8115 4418.36 13.8115C4416.63 13.8115 4414.98 13.1261 4413.76 11.9061C4412.54 10.686 4411.85 9.03126 4411.85 7.30584" stroke="#800000"/>
<path d="M4437.87 7.30549C4437.87 5.58007 4437.19 3.92533 4435.97 2.70528C4434.75 1.48522 4433.09 0.799805 4431.37 0.799805C4429.64 0.799805 4427.99 1.48522 4426.77 2.70527C4425.55 3.92533 4424.86 5.58007 4424.86 7.30549" stroke="#800000"/>
<path d="M4450.89 7.30584C4450.89 9.03126 4450.2 10.686 4448.98 11.9061C4447.76 13.1261 4446.11 13.8115 4444.38 13.8115C4442.66 13.8115 4441 13.1261 4439.78 11.9061C4438.56 10.686 4437.88 9.03126 4437.88 7.30584" stroke="#800000"/>
<path d="M4463.9 7.30549C4463.9 5.58007 4463.21 3.92533 4461.99 2.70528C4460.77 1.48522 4459.12 0.799805 4457.39 0.799805C4455.67 0.799805 4454.01 1.48522 4452.79 2.70527C4451.57 3.92533 4450.89 5.58007 4450.89 7.30549" stroke="#800000"/>
<path d="M4476.91 7.30584C4476.91 9.03126 4476.22 10.686 4475 11.9061C4473.78 13.1261 4472.13 13.8115 4470.4 13.8115C4468.68 13.8115 4467.02 13.1261 4465.8 11.9061C4464.58 10.686 4463.9 9.03126 4463.9 7.30584" stroke="#800000"/>
<path d="M4489.92 7.30549C4489.92 5.58007 4489.24 3.92533 4488.02 2.70528C4486.8 1.48522 4485.14 0.799805 4483.42 0.799805C4481.69 0.799805 4480.04 1.48522 4478.82 2.70527C4477.6 3.92533 4476.91 5.58007 4476.91 7.30549" stroke="#800000"/>
<path d="M4502.93 7.30584C4502.93 9.03126 4502.25 10.686 4501.03 11.9061C4499.81 13.1261 4498.15 13.8115 4496.43 13.8115C4494.7 13.8115 4493.05 13.1261 4491.83 11.9061C4490.61 10.686 4489.92 9.03126 4489.92 7.30584" stroke="#800000"/>
<path d="M4515.94 7.30549C4515.94 5.58007 4515.26 3.92533 4514.04 2.70528C4512.82 1.48522 4511.16 0.799805 4509.44 0.799805C4507.71 0.799805 4506.06 1.48522 4504.84 2.70527C4503.62 3.92533 4502.93 5.58007 4502.93 7.30549" stroke="#800000"/>
<path d="M4528.96 7.30584C4528.96 9.03126 4528.27 10.686 4527.05 11.9061C4525.83 13.1261 4524.18 13.8115 4522.45 13.8115C4520.72 13.8115 4519.07 13.1261 4517.85 11.9061C4516.63 10.686 4515.94 9.03126 4515.94 7.30584" stroke="#800000"/>
<path d="M4541.97 7.30549C4541.97 5.58007 4541.28 3.92533 4540.06 2.70528C4538.84 1.48522 4537.19 0.799805 4535.46 0.799805C4533.74 0.799805 4532.08 1.48522 4530.86 2.70527C4529.64 3.92533 4528.96 5.58007 4528.96 7.30549" stroke="#800000"/>
<path d="M4554.98 7.30584C4554.98 9.03126 4554.29 10.686 4553.07 11.9061C4551.85 13.1261 4550.2 13.8115 4548.47 13.8115C4546.75 13.8115 4545.09 13.1261 4543.87 11.9061C4542.65 10.686 4541.97 9.03126 4541.97 7.30584" stroke="#800000"/>
<path d="M4567.99 7.30549C4567.99 5.58007 4567.3 3.92533 4566.08 2.70528C4564.86 1.48522 4563.21 0.799805 4561.48 0.799805C4559.76 0.799805 4558.1 1.48522 4556.88 2.70527C4555.66 3.92533 4554.98 5.58007 4554.98 7.30549" stroke="#800000"/>
<path d="M4581 7.30584C4581 9.03126 4580.32 10.686 4579.1 11.9061C4577.88 13.1261 4576.22 13.8115 4574.5 13.8115C4572.77 13.8115 4571.12 13.1261 4569.9 11.9061C4568.68 10.686 4567.99 9.03126 4567.99 7.30584" stroke="#800000"/>
<path d="M4594.01 7.30549C4594.01 5.58007 4593.33 3.92533 4592.11 2.70528C4590.89 1.48522 4589.23 0.799805 4587.51 0.799805C4585.78 0.799805 4584.13 1.48522 4582.91 2.70527C4581.69 3.92533 4581 5.58007 4581 7.30549" stroke="#800000"/>
<path d="M4607.03 7.30584C4607.03 9.03126 4606.34 10.686 4605.12 11.9061C4603.9 13.1261 4602.24 13.8115 4600.52 13.8115C4598.79 13.8115 4597.14 13.1261 4595.92 11.9061C4594.7 10.686 4594.01 9.03126 4594.01 7.30584" stroke="#800000"/>
<path d="M4620.04 7.30549C4620.04 5.58007 4619.35 3.92533 4618.13 2.70528C4616.91 1.48522 4615.26 0.799805 4613.53 0.799805C4611.8 0.799805 4610.15 1.48522 4608.93 2.70527C4607.71 3.92533 4607.02 5.58007 4607.02 7.30549" stroke="#800000"/>
<path d="M4633.05 7.30584C4633.05 9.03126 4632.36 10.686 4631.14 11.9061C4629.92 13.1261 4628.27 13.8115 4626.54 13.8115C4624.82 13.8115 4623.16 13.1261 4621.94 11.9061C4620.72 10.686 4620.04 9.03126 4620.04 7.30584" stroke="#800000"/>
<path d="M4646.06 7.30549C4646.06 5.58007 4645.37 3.92533 4644.15 2.70528C4642.93 1.48522 4641.28 0.799805 4639.55 0.799805C4637.83 0.799805 4636.17 1.48522 4634.95 2.70527C4633.73 3.92533 4633.05 5.58007 4633.05 7.30549" stroke="#800000"/>
<path d="M4659.07 7.30584C4659.07 9.03126 4658.38 10.686 4657.16 11.9061C4655.94 13.1261 4654.29 13.8115 4652.56 13.8115C4650.84 13.8115 4649.18 13.1261 4647.96 11.9061C4646.74 10.686 4646.06 9.03126 4646.06 7.30584" stroke="#800000"/>
<path d="M4672.08 7.30549C4672.08 5.58007 4671.4 3.92533 4670.18 2.70528C4668.96 1.48522 4667.3 0.799805 4665.58 0.799805C4663.85 0.799805 4662.2 1.48522 4660.98 2.70527C4659.76 3.92533 4659.07 5.58007 4659.07 7.30549" stroke="#800000"/>
<path d="M4685.09 7.30584C4685.09 9.03126 4684.41 10.686 4683.19 11.9061C4681.97 13.1261 4680.31 13.8115 4678.59 13.8115C4676.86 13.8115 4675.21 13.1261 4673.99 11.9061C4672.77 10.686 4672.08 9.03126 4672.08 7.30584" stroke="#800000"/>
<path d="M4698.11 7.30549C4698.11 5.58007 4697.42 3.92533 4696.2 2.70528C4694.98 1.48522 4693.32 0.799805 4691.6 0.799805C4689.87 0.799805 4688.22 1.48522 4687 2.70527C4685.78 3.92533 4685.09 5.58007 4685.09 7.30549" stroke="#800000"/>
<path d="M4711.12 7.30584C4711.12 9.03126 4710.43 10.686 4709.21 11.9061C4707.99 13.1261 4706.34 13.8115 4704.61 13.8115C4702.89 13.8115 4701.23 13.1261 4700.01 11.9061C4698.79 10.686 4698.11 9.03126 4698.11 7.30584" stroke="#800000"/>
<path d="M4724.13 7.30549C4724.13 5.58007 4723.44 3.92533 4722.22 2.70528C4721 1.48522 4719.35 0.799805 4717.62 0.799805C4715.9 0.799805 4714.24 1.48522 4713.02 2.70527C4711.8 3.92533 4711.12 5.58007 4711.12 7.30549" stroke="#800000"/>
<path d="M4737.14 7.30584C4737.14 9.03126 4736.45 10.686 4735.23 11.9061C4734.01 13.1261 4732.36 13.8115 4730.63 13.8115C4728.91 13.8115 4727.25 13.1261 4726.03 11.9061C4724.81 10.686 4724.13 9.03126 4724.13 7.30584" stroke="#800000"/>
<path d="M4750.15 7.30549C4750.15 5.58007 4749.46 3.92533 4748.24 2.70528C4747.02 1.48522 4745.37 0.799805 4743.64 0.799805C4741.92 0.799805 4740.26 1.48522 4739.04 2.70527C4737.82 3.92533 4737.14 5.58007 4737.14 7.30549" stroke="#800000"/>
<path d="M4763.16 7.30584C4763.16 9.03126 4762.48 10.686 4761.26 11.9061C4760.04 13.1261 4758.38 13.8115 4756.66 13.8115C4754.93 13.8115 4753.28 13.1261 4752.06 11.9061C4750.84 10.686 4750.15 9.03126 4750.15 7.30584" stroke="#800000"/>
<path d="M4776.17 7.30549C4776.17 5.58007 4775.49 3.92533 4774.27 2.70528C4773.05 1.48522 4771.39 0.799805 4769.67 0.799805C4767.94 0.799805 4766.29 1.48522 4765.07 2.70527C4763.85 3.92533 4763.16 5.58007 4763.16 7.30549" stroke="#800000"/>
<path d="M4789.19 7.30584C4789.19 9.03126 4788.5 10.686 4787.28 11.9061C4786.06 13.1261 4784.4 13.8115 4782.68 13.8115C4780.95 13.8115 4779.3 13.1261 4778.08 11.9061C4776.86 10.686 4776.17 9.03126 4776.17 7.30584" stroke="#800000"/>
<path d="M4802.2 7.30549C4802.2 5.58007 4801.51 3.92533 4800.29 2.70528C4799.07 1.48522 4797.42 0.799805 4795.69 0.799805C4793.97 0.799805 4792.31 1.48522 4791.09 2.70527C4789.87 3.92533 4789.19 5.58007 4789.19 7.30549" stroke="#800000"/>
<path d="M4815.21 7.30584C4815.21 9.03126 4814.52 10.686 4813.3 11.9061C4812.08 13.1261 4810.43 13.8115 4808.7 13.8115C4806.98 13.8115 4805.32 13.1261 4804.1 11.9061C4802.88 10.686 4802.2 9.03126 4802.2 7.30584" stroke="#800000"/>
<path d="M4828.22 7.30549C4828.22 5.58007 4827.53 3.92533 4826.31 2.70528C4825.09 1.48522 4823.44 0.799805 4821.71 0.799805C4819.99 0.799805 4818.33 1.48522 4817.11 2.70527C4815.89 3.92533 4815.21 5.58007 4815.21 7.30549" stroke="#800000"/>
<path d="M4841.23 7.30584C4841.23 9.03126 4840.54 10.686 4839.32 11.9061C4838.1 13.1261 4836.45 13.8115 4834.72 13.8115C4833 13.8115 4831.34 13.1261 4830.12 11.9061C4828.9 10.686 4828.22 9.03126 4828.22 7.30584" stroke="#800000"/>
<path d="M4854.24 7.30549C4854.24 5.58007 4853.56 3.92533 4852.34 2.70528C4851.12 1.48522 4849.46 0.799805 4847.74 0.799805C4846.01 0.799805 4844.36 1.48522 4843.14 2.70527C4841.92 3.92533 4841.23 5.58007 4841.23 7.30549" stroke="#800000"/>
<path d="M4867.25 7.30584C4867.25 9.03126 4866.57 10.686 4865.35 11.9061C4864.13 13.1261 4862.47 13.8115 4860.75 13.8115C4859.02 13.8115 4857.37 13.1261 4856.15 11.9061C4854.93 10.686 4854.24 9.03126 4854.24 7.30584" stroke="#800000"/>
<path d="M4880.27 7.30549C4880.27 5.58007 4879.58 3.92533 4878.36 2.70528C4877.14 1.48522 4875.49 0.799805 4873.76 0.799805C4872.03 0.799805 4870.38 1.48522 4869.16 2.70527C4867.94 3.92533 4867.25 5.58007 4867.25 7.30549" stroke="#800000"/>
<path d="M4893.28 7.30584C4893.28 9.03126 4892.59 10.686 4891.37 11.9061C4890.15 13.1261 4888.5 13.8115 4886.77 13.8115C4885.05 13.8115 4883.39 13.1261 4882.17 11.9061C4880.95 10.686 4880.27 9.03126 4880.27 7.30584" stroke="#800000"/>
<path d="M4906.29 7.30549C4906.29 5.58007 4905.6 3.92533 4904.38 2.70528C4903.16 1.48522 4901.51 0.799805 4899.78 0.799805C4898.06 0.799805 4896.4 1.48522 4895.18 2.70527C4893.96 3.92533 4893.28 5.58007 4893.28 7.30549" stroke="#800000"/>
<path d="M4919.3 7.30584C4919.3 9.03126 4918.62 10.686 4917.39 11.9061C4916.17 13.1261 4914.52 13.8115 4912.79 13.8115C4911.07 13.8115 4909.41 13.1261 4908.19 11.9061C4906.97 10.686 4906.29 9.03126 4906.29 7.30584" stroke="#800000"/>
<path d="M4932.31 7.30549C4932.31 5.58007 4931.63 3.92533 4930.41 2.70528C4929.19 1.48522 4927.53 0.799805 4925.81 0.799805C4924.08 0.799805 4922.43 1.48522 4921.21 2.70527C4919.99 3.92533 4919.3 5.58007 4919.3 7.30549" stroke="#800000"/>
<path d="M4945.32 7.30584C4945.32 9.03126 4944.64 10.686 4943.42 11.9061C4942.2 13.1261 4940.54 13.8115 4938.82 13.8115C4937.09 13.8115 4935.44 13.1261 4934.22 11.9061C4933 10.686 4932.31 9.03126 4932.31 7.30584" stroke="#800000"/>
<path d="M4958.33 7.30549C4958.33 5.58007 4957.65 3.92533 4956.43 2.70528C4955.21 1.48522 4953.55 0.799805 4951.83 0.799805C4950.1 0.799805 4948.45 1.48522 4947.23 2.70527C4946.01 3.92533 4945.32 5.58007 4945.32 7.30549" stroke="#800000"/>
<path d="M4971.35 7.30584C4971.35 9.03126 4970.66 10.686 4969.44 11.9061C4968.22 13.1261 4966.57 13.8115 4964.84 13.8115C4963.11 13.8115 4961.46 13.1261 4960.24 11.9061C4959.02 10.686 4958.33 9.03126 4958.33 7.30584" stroke="#800000"/>
<path d="M4984.36 7.30549C4984.36 5.58007 4983.67 3.92533 4982.45 2.70528C4981.23 1.48522 4979.58 0.799805 4977.85 0.799805C4976.13 0.799805 4974.47 1.48522 4973.25 2.70527C4972.03 3.92533 4971.35 5.58007 4971.35 7.30549" stroke="#800000"/>
<path d="M4997.37 7.30584C4997.37 9.03126 4996.68 10.686 4995.46 11.9061C4994.24 13.1261 4992.59 13.8115 4990.86 13.8115C4989.14 13.8115 4987.48 13.1261 4986.26 11.9061C4985.04 10.686 4984.36 9.03126 4984.36 7.30584" stroke="#800000"/>
<path d="M5010.38 7.30549C5010.38 5.58007 5009.7 3.92533 5008.48 2.70528C5007.25 1.48522 5005.6 0.799805 5003.87 0.799805C5002.15 0.799805 5000.49 1.48522 4999.27 2.70527C4998.05 3.92533 4997.37 5.58007 4997.37 7.30549" stroke="#800000"/>
<path d="M5023.39 7.30584C5023.39 9.03126 5022.71 10.686 5021.49 11.9061C5020.27 13.1261 5018.61 13.8115 5016.89 13.8115C5015.16 13.8115 5013.51 13.1261 5012.29 11.9061C5011.07 10.686 5010.38 9.03126 5010.38 7.30584" stroke="#800000"/>
<path d="M5036.4 7.30549C5036.4 5.58007 5035.72 3.92533 5034.5 2.70528C5033.28 1.48522 5031.62 0.799805 5029.9 0.799805C5028.17 0.799805 5026.52 1.48522 5025.3 2.70527C5024.08 3.92533 5023.39 5.58007 5023.39 7.30549" stroke="#800000"/>
<path d="M5049.41 7.30584C5049.41 9.03126 5048.73 10.686 5047.51 11.9061C5046.29 13.1261 5044.63 13.8115 5042.91 13.8115C5041.18 13.8115 5039.53 13.1261 5038.31 11.9061C5037.09 10.686 5036.4 9.03126 5036.4 7.30584" stroke="#800000"/>
<path d="M5062.43 7.30549C5062.43 5.58007 5061.74 3.92533 5060.52 2.70528C5059.3 1.48522 5057.65 0.799805 5055.92 0.799805C5054.19 0.799805 5052.54 1.48522 5051.32 2.70527C5050.1 3.92533 5049.41 5.58007 5049.41 7.30549" stroke="#800000"/>
<path d="M5075.44 7.30584C5075.44 9.03126 5074.75 10.686 5073.53 11.9061C5072.31 13.1261 5070.66 13.8115 5068.93 13.8115C5067.21 13.8115 5065.55 13.1261 5064.33 11.9061C5063.11 10.686 5062.43 9.03126 5062.43 7.30584" stroke="#800000"/>
<path d="M5088.45 7.30549C5088.45 5.58007 5087.76 3.92533 5086.54 2.70528C5085.32 1.48522 5083.67 0.799805 5081.94 0.799805C5080.22 0.799805 5078.56 1.48522 5077.34 2.70527C5076.12 3.92533 5075.44 5.58007 5075.44 7.30549" stroke="#800000"/>
<path d="M5101.46 7.30584C5101.46 9.03126 5100.78 10.686 5099.56 11.9061C5098.34 13.1261 5096.68 13.8115 5094.95 13.8115C5093.23 13.8115 5091.57 13.1261 5090.35 11.9061C5089.13 10.686 5088.45 9.03126 5088.45 7.30584" stroke="#800000"/>
<path d="M5114.47 7.30549C5114.47 5.58007 5113.79 3.92533 5112.57 2.70528C5111.35 1.48522 5109.69 0.799805 5107.97 0.799805C5106.24 0.799805 5104.59 1.48522 5103.37 2.70527C5102.15 3.92533 5101.46 5.58007 5101.46 7.30549" stroke="#800000"/>
<path d="M5127.48 7.30584C5127.48 9.03126 5126.8 10.686 5125.58 11.9061C5124.36 13.1261 5122.7 13.8115 5120.98 13.8115C5119.25 13.8115 5117.6 13.1261 5116.38 11.9061C5115.16 10.686 5114.47 9.03126 5114.47 7.30584" stroke="#800000"/>
<path d="M5140.49 7.30549C5140.49 5.58007 5139.81 3.92533 5138.59 2.70528C5137.37 1.48522 5135.71 0.799805 5133.99 0.799805C5132.26 0.799805 5130.61 1.48522 5129.39 2.70527C5128.17 3.92533 5127.48 5.58007 5127.48 7.30549" stroke="#800000"/>
<path d="M5153.51 7.30584C5153.51 9.03126 5152.82 10.686 5151.6 11.9061C5150.38 13.1261 5148.73 13.8115 5147 13.8115C5145.27 13.8115 5143.62 13.1261 5142.4 11.9061C5141.18 10.686 5140.49 9.03126 5140.49 7.30584" stroke="#800000"/>
<path d="M5166.52 7.30549C5166.52 5.58007 5165.83 3.92533 5164.61 2.70528C5163.39 1.48522 5161.74 0.799805 5160.01 0.799805C5158.29 0.799805 5156.63 1.48522 5155.41 2.70527C5154.19 3.92533 5153.51 5.58007 5153.51 7.30549" stroke="#800000"/>
<path d="M5179.53 7.30584C5179.53 9.03126 5178.84 10.686 5177.62 11.9061C5176.4 13.1261 5174.75 13.8115 5173.02 13.8115C5171.3 13.8115 5169.64 13.1261 5168.42 11.9061C5167.2 10.686 5166.52 9.03126 5166.52 7.30584" stroke="#800000"/>
<path d="M5192.54 7.30549C5192.54 5.58007 5191.86 3.92533 5190.64 2.70528C5189.42 1.48522 5187.76 0.799805 5186.03 0.799805C5184.31 0.799805 5182.65 1.48522 5181.43 2.70527C5180.21 3.92533 5179.53 5.58007 5179.53 7.30549" stroke="#800000"/>
<path d="M5205.55 7.30584C5205.55 9.03126 5204.87 10.686 5203.65 11.9061C5202.43 13.1261 5200.77 13.8115 5199.05 13.8115C5197.32 13.8115 5195.67 13.1261 5194.45 11.9061C5193.23 10.686 5192.54 9.03126 5192.54 7.30584" stroke="#800000"/>
</svg>
