<svg width="71" height="70" viewBox="0 0 71 70" fill="none" xmlns="http://www.w3.org/2000/svg">
<rect width="70" height="70" transform="translate(0.5)" fill="#800000"/>
<path d="M31.2907 31.8169C31.6075 32.1606 32.7725 33.4057 32.7948 33.7951C32.8141 34.1291 31.9537 34.2342 31.6963 34.2661C30.0222 34.4753 27.9029 34.4128 26.2212 34.221C25.7278 34.1646 24.6649 34.0098 24.2918 33.7139C23.0649 32.7387 24.4141 29.69 25.2557 28.7387C26.3806 27.4672 27.1846 28.1311 28.2715 28.9733C29.3329 29.7951 30.3821 30.8301 31.2912 31.8169H31.2907Z" fill="white"/>
<path d="M38.9583 39.5302C39.9654 40.4967 41.2557 41.8383 41.9933 43.017C42.6131 44.0074 42.4263 44.6028 41.5486 45.3368C40.5669 46.1576 37.2664 47.5688 36.5253 45.947C36.1502 45.1262 36.137 43.5373 36.0953 42.6206C36.0364 41.3211 35.9603 39.7977 36.2019 38.518C36.2755 38.1282 36.2969 37.5921 36.8065 37.7475C37.271 37.8891 38.5502 39.1388 38.9583 39.5302Z" fill="white"/>
<path d="M29.3633 42.0606C30.3374 40.8312 31.9485 39.1378 33.2049 38.2119C33.7277 37.8266 34.2475 37.3165 34.4556 38.2703C34.816 39.9215 34.6861 43.7312 34.3023 45.4007C33.9744 46.8261 32.9023 46.8388 31.6663 46.5418C30.5841 46.2819 28.4602 45.3271 28.2876 44.0824C28.2059 43.4941 28.9968 42.5231 29.3633 42.0606Z" fill="white"/>
<path d="M33.1396 31.7582C31.8127 30.7623 29.5894 28.4197 28.7117 27.0237C27.9833 25.8648 28.3173 25.2095 29.3757 24.4582C30.5432 23.6288 33.7168 22.3542 34.2726 24.4075C34.6939 25.9643 34.6939 28.8491 34.5929 30.4872C34.5731 30.8055 34.4249 31.9755 34.2599 32.1846C34.0351 32.4694 33.3711 31.9313 33.1401 31.7582H33.1396Z" fill="white"/>
<path d="M46.7359 36.3205C47.7562 37.2672 46.6796 39.9012 46.0034 40.8576C44.9176 42.3931 44.1542 42.1383 42.8207 41.1236C41.6633 40.2434 40.3278 38.9708 39.3669 37.8769C39.1044 37.5779 38.14 36.4728 38.174 36.1261C38.2014 35.8464 39.2192 35.721 39.4699 35.6941C40.6877 35.5637 42.1024 35.6337 43.3247 35.6951C44.0968 35.7337 46.1796 35.8038 46.7359 36.32V36.3205Z" fill="white"/>
<path d="M29.7694 39.5221C29.1547 40.0916 27.3654 41.75 26.5674 41.7662C25.2923 41.7921 24.2324 39.4703 23.9862 38.4353C23.6557 37.0464 23.7014 36.0332 25.2694 35.7074C26.9755 35.353 30.1192 35.3033 31.8496 35.5464C32.9385 35.6992 33.0365 35.8738 32.4101 36.7566C31.7461 37.6931 30.6207 38.7332 29.7694 39.5221Z" fill="white"/>
<path d="M41.2776 27.9347C40.3035 29.1642 38.6923 30.8576 37.436 31.7835C36.9131 32.1688 36.3934 32.6789 36.1852 31.7251C35.8248 30.0738 35.9548 26.2642 36.3385 24.5946C36.6664 23.1693 37.7385 23.1566 38.9746 23.4535C40.0568 23.7134 42.1807 24.6682 42.3532 25.9129C42.435 26.5012 41.6441 27.4723 41.2776 27.9347Z" fill="white"/>
<path d="M41.0238 30.2703C41.6385 29.7007 43.4278 28.0424 44.2258 28.0261C45.5009 28.0002 46.5608 30.3221 46.807 31.3571C47.1375 32.7459 47.0918 33.7591 45.5238 34.085C43.8177 34.4393 40.674 34.4891 38.9436 34.2459C37.8547 34.0931 37.7568 33.9185 38.3832 33.0358C39.0471 32.0992 40.1725 31.0591 41.0238 30.2703Z" fill="white"/>
<circle cx="35.5" cy="35" r="14.2386" stroke="white" stroke-width="1.52284"/>
</svg>
