<svg width="80" height="80" viewBox="0 0 80 80" fill="none" xmlns="http://www.w3.org/2000/svg">
<g id="Group 56" filter="url(#filter0_d_105_26139)">
<circle id="Ellipse 34" cx="40" cy="36" r="30" fill="#FEF4D8"/>
<path id="circle-chevron-up" d="M40 66C23.3594 66 10 52.6406 10 36C10 19.4766 23.3594 6 40 6C56.5234 6 70 19.4766 70 36C70 52.6406 56.5234 66 40 66ZM41.9922 25.5703L40 23.5781L38.0078 25.5703L25.8203 37.7578L23.8281 39.75L27.8125 43.7344L29.8047 41.7422L40 31.5469L50.1953 41.7422L52.1875 43.7344L56.1719 39.75L54.1797 37.7578L41.9922 25.5703Z" fill="#CA0003"/>
</g>
<defs>
<filter id="filter0_d_105_26139" x="0" y="0" width="80" height="80" filterUnits="userSpaceOnUse" color-interpolation-filters="sRGB">
<feFlood flood-opacity="0" result="BackgroundImageFix"/>
<feColorMatrix in="SourceAlpha" type="matrix" values="0 0 0 0 0 0 0 0 0 0 0 0 0 0 0 0 0 0 127 0" result="hardAlpha"/>
<feOffset dy="4"/>
<feGaussianBlur stdDeviation="5"/>
<feComposite in2="hardAlpha" operator="out"/>
<feColorMatrix type="matrix" values="0 0 0 0 0 0 0 0 0 0 0 0 0 0 0 0 0 0 0.5 0"/>
<feBlend mode="normal" in2="BackgroundImageFix" result="effect1_dropShadow_105_26139"/>
<feBlend mode="normal" in="SourceGraphic" in2="effect1_dropShadow_105_26139" result="shape"/>
</filter>
</defs>
</svg>
