<svg xmlns="http://www.w3.org/2000/svg" version="1.1" xmlns:xlink="http://www.w3.org/1999/xlink" xmlns:svgjs="http://svgjs.dev/svgjs" width="30" height="30"><svg width="30" height="30" viewBox="0 0 30 30" fill="none" xmlns="http://www.w3.org/2000/svg">
<path d="M10.791 11.8169C11.1077 12.1606 12.2727 13.4058 12.295 13.7951C12.3143 14.1291 11.4539 14.2342 11.1966 14.2662C9.52246 14.4753 7.40317 14.4129 5.72144 14.221C5.22804 14.1647 4.1651 14.0098 3.792 13.7139C2.5651 12.7388 3.91433 9.69003 4.75596 8.73876C5.88083 7.46719 6.68489 8.13115 7.77169 8.97328C8.83312 9.79511 9.88236 10.8301 10.7915 11.8169H10.791Z" fill="#800000"></path>
<path d="M18.4588 19.5302C19.4659 20.4966 20.7562 21.8383 21.4938 23.017C22.1136 24.0073 21.9268 24.6027 21.0491 25.3368C20.0674 26.1576 16.7669 27.5687 16.0258 25.9469C15.6506 25.1261 15.6374 23.5373 15.5958 22.6205C15.5369 21.321 15.4608 19.7977 15.7024 18.518C15.776 18.1281 15.7973 17.5921 16.307 17.7474C16.7715 17.889 18.0506 19.1388 18.4588 19.5302Z" fill="#800000"></path>
<path d="M8.86374 22.0606C9.83785 20.8311 11.449 19.1377 12.7054 18.2119C13.2282 17.8266 13.748 17.3164 13.9561 18.2702C14.3165 19.9215 14.1866 23.7311 13.8028 25.4007C13.4749 26.8261 12.4028 26.8388 11.1668 26.5418C10.0846 26.2819 7.9607 25.3271 7.78811 24.0824C7.70638 23.4941 8.49725 22.523 8.86374 22.0606Z" fill="#800000"></path>
<path d="M12.6396 11.7582C11.3127 10.7623 9.08937 8.41965 8.21171 7.02371C7.48328 5.86483 7.81729 5.2095 8.87567 4.45823C10.0432 3.62879 13.2168 2.35417 13.7726 4.40747C14.1939 5.96432 14.1939 8.8491 14.0929 10.4872C14.0731 10.8054 13.9249 11.9755 13.7599 12.1846C13.5351 12.4694 12.8711 11.9313 12.6401 11.7582H12.6396Z" fill="#800000"></path>
<path d="M26.2361 16.3205C27.2565 17.2672 26.1798 19.9012 25.5037 20.8575C24.4179 22.3931 23.6544 22.1382 22.3209 21.1235C21.1636 20.2433 19.828 18.9707 18.8671 17.8768C18.6047 17.5778 17.6402 16.4728 17.6742 16.1261C17.7016 15.8464 18.7194 15.721 18.9702 15.6941C20.1879 15.5636 21.6026 15.6337 22.825 15.6951C23.5971 15.7337 25.6798 15.8037 26.2361 16.32V16.3205Z" fill="#800000"></path>
<path d="M9.26945 19.522C8.65473 20.0916 6.86539 21.7499 6.06742 21.7662C4.79229 21.7921 3.73239 19.4702 3.4862 18.4352C3.15574 17.0464 3.20143 16.0332 4.76945 15.7073C6.47554 15.353 9.61919 15.3032 11.3496 15.5464C12.4385 15.6992 12.5365 15.8738 11.9101 16.7565C11.2461 17.6931 10.1207 18.7332 9.26945 19.522Z" fill="#800000"></path>
<path d="M20.7779 7.93468C19.8037 9.16412 18.1926 10.8575 16.9362 11.7834C16.4134 12.1687 15.8936 12.6788 15.6855 11.725C15.3251 10.0738 15.455 6.26412 15.8388 4.59458C16.1667 3.1692 17.2388 3.15651 18.4748 3.45346C19.557 3.71336 21.6809 4.66818 21.8535 5.91285C21.9352 6.50118 21.1444 7.47224 20.7779 7.93468Z" fill="#800000"></path>
<path d="M20.524 10.2702C21.1387 9.70068 22.9281 8.04231 23.726 8.02606C25.0012 8.00018 26.0611 10.322 26.3073 11.357C26.6377 12.7459 26.592 13.7591 25.024 14.0849C23.3179 14.4393 20.1743 14.489 18.4438 14.2459C17.355 14.0931 17.257 13.9184 17.8834 13.0357C18.5474 12.0992 19.6727 11.0591 20.524 10.2702Z" fill="#800000"></path>
<circle cx="15" cy="15" r="14.2386" stroke="#800000" stroke-width="1.52284"></circle>
</svg><style>@media (prefers-color-scheme: light) { :root { filter: none; } }
@media (prefers-color-scheme: dark) { :root { filter: none; } }
</style></svg>