<svg width="55" height="46" viewBox="0 0 55 46" fill="none" xmlns="http://www.w3.org/2000/svg">
<path d="M33.792 45.12C32.768 41.408 32 37.888 31.488 34.56C31.104 31.232 30.912 28.096 30.912 25.152C30.912 17.216 32.832 11.072 36.672 6.72001C40.512 2.24 46.272 0 53.952 0V10.176C47.424 10.176 44.16 13.952 44.16 21.504V25.344H54.912V45.12H33.792ZM3.072 45.12C2.048 41.408 1.28 37.888 0.768 34.56C0.256 31.232 0 28.096 0 25.152C0 17.216 1.92 11.072 5.76 6.72001C9.6 2.24 15.296 0 22.848 0V10.176C16.576 10.176 13.44 13.952 13.44 21.504V25.344H24.192V45.12H3.072Z" fill="#1A5AFF"/>
</svg>
